<svg xmlns="http://www.w3.org/2000/svg" width="1432" height="732" viewBox="0 0 1432 732">
<g>
<path d="M 0.00 0.00 L 1432.00 0.00 L 1432.00 732.00 L 0.00 732.00 ZM 707.58 525.14 C707.88,525.61 709.43,526.00 711.03,526.00 C713.73,526.00 714.06,525.57 715.52,520.25 C721.59,498.04 726.31,485.79 744.42,445.17 C749.14,434.59 753.00,425.76 753.00,425.54 C753.00,424.94 738.71,413.96 738.37,414.30 C738.21,414.46 733.10,425.81 727.01,439.52 C720.92,453.24 715.58,464.82 715.15,465.25 C714.46,465.94 708.10,453.64 705.18,446.00 C704.65,444.62 701.53,437.65 698.23,430.50 C694.93,423.35 684.75,400.97 675.60,380.76 C659.23,344.62 641.98,306.91 639.57,302.00 C635.07,292.84 626.26,273.51 619.98,259.00 C604.42,223.05 587.77,201.01 564.41,185.47 C554.68,179.00 541.92,172.81 534.00,170.72 C521.08,167.33 517.99,166.79 508.50,166.28 C497.79,165.70 485.21,167.00 475.74,169.65 C470.78,171.04 469.94,171.61 470.20,173.40 C470.49,175.40 471.22,175.53 486.00,176.09 C499.76,176.61 502.57,177.03 511.03,179.81 C537.50,188.53 562.33,212.27 578.54,244.37 L 584.36 255.88 L 581.13 285.19 C576.20,329.87 570.42,379.41 563.81,433.50 C560.52,460.45 557.75,483.74 557.66,485.25 C557.57,486.76 557.16,488.00 556.75,488.00 C556.34,488.00 556.00,488.91 556.00,490.03 C556.00,493.67 550.25,503.57 546.46,506.47 C540.90,510.71 533.89,513.00 526.49,513.00 L 520.00 513.00 L 520.00 522.02 L 606.50 521.50 L 606.50 513.50 L 600.42 512.92 C593.51,512.26 586.76,508.96 583.62,504.72 C579.80,499.55 580.03,495.42 588.98,408.50 C589.54,403.00 590.88,389.27 591.95,378.00 C594.60,349.96 600.93,291.74 601.36,291.30 C601.56,291.11 602.87,293.55 604.27,296.72 C605.68,299.90 610.41,310.38 614.78,320.00 C619.16,329.62 625.92,344.53 629.81,353.13 C633.69,361.72 640.33,375.90 644.55,384.63 C648.77,393.36 655.95,408.83 660.51,419.00 C676.43,454.53 690.74,486.12 696.53,498.50 C699.10,504.00 702.52,512.05 704.13,516.39 C705.73,520.72 707.29,524.66 707.58,525.14 ZM 694.50 669.40 C696.70,669.62 708.85,669.65 721.50,669.47 C745.30,669.13 753.37,668.24 775.95,663.47 C814.18,655.40 852.55,637.62 885.50,612.70 C894.79,605.67 906.02,596.04 905.97,595.13 C905.95,594.78 901.92,591.87 897.01,588.66 L 888.09 582.81 L 881.93 587.66 C878.53,590.32 874.58,593.37 873.13,594.44 C871.68,595.51 868.86,597.83 866.86,599.59 C864.86,601.35 856.99,606.51 849.36,611.06 C811.09,633.87 776.13,644.82 731.38,648.01 C706.65,649.78 679.42,647.16 653.00,640.49 C634.28,635.76 604.55,623.41 584.58,612.07 C560.78,598.55 526.27,567.53 508.85,544.00 C497.36,528.48 482.43,504.55 480.10,497.91 C479.05,494.93 477.09,490.02 475.74,487.00 C469.67,473.41 463.33,453.43 459.90,437.00 C453.50,406.39 452.74,385.75 456.52,345.00 C456.92,340.70 460.97,321.92 463.64,312.00 C467.57,297.35 473.51,281.94 481.54,265.50 C492.31,243.47 502.48,228.00 518.25,209.66 C521.96,205.35 525.00,201.38 525.00,200.84 C525.00,199.72 508.98,192.00 506.65,192.00 C505.80,192.00 501.98,195.71 498.17,200.25 C462.18,243.10 439.07,299.86 433.92,358.06 C432.44,374.78 433.26,408.56 435.50,423.00 C439.93,451.64 449.55,483.28 461.78,509.46 C467.21,521.08 480.00,541.88 489.53,554.56 C540.13,621.96 609.86,661.02 694.50,669.40 ZM 703.00 568.94 C718.56,570.88 739.04,568.72 754.59,563.50 C776.73,556.07 796.46,540.36 808.10,520.91 C818.95,502.76 823.41,476.29 819.47,453.38 C815.95,432.89 808.09,416.95 793.96,401.65 C785.06,392.01 779.81,387.73 710.00,333.22 C685.54,314.13 679.00,303.63 679.00,283.50 C679.00,268.35 683.37,257.67 693.47,248.12 C707.94,234.43 732.56,230.86 752.08,239.62 C758.59,242.54 767.45,251.04 770.76,257.54 C773.34,262.61 776.00,271.55 776.00,275.18 C776.00,277.82 776.26,278.00 780.15,278.00 L 784.31 278.00 L 783.66 266.75 C783.30,260.56 783.01,248.30 783.01,239.50 L 783.00 223.50 L 778.25 223.82 C775.64,224.00 769.22,223.41 764.00,222.51 C726.32,216.04 711.17,216.82 692.00,226.24 C685.04,229.66 681.77,232.14 673.95,239.96 C664.63,249.26 658.00,259.12 658.00,263.67 C658.00,264.71 657.39,266.44 656.64,267.53 C652.42,273.67 651.09,299.45 654.35,312.00 C659.33,331.19 669.39,343.30 700.00,366.96 C705.22,371.00 712.42,376.59 716.00,379.40 C719.58,382.20 723.22,384.95 724.10,385.50 C731.84,390.34 757.62,411.90 765.59,420.20 C775.48,430.50 779.41,436.15 783.63,446.17 C791.75,465.42 791.79,486.87 783.74,507.00 C782.53,510.02 780.81,513.62 779.93,515.00 C773.94,524.28 772.03,526.68 766.81,531.51 C759.25,538.51 750.81,543.41 739.55,547.31 C730.82,550.34 729.93,550.45 714.00,550.44 C698.69,550.43 696.89,550.23 689.00,547.66 C684.33,546.13 679.79,544.77 678.92,544.64 C678.05,544.51 673.23,541.80 668.20,538.63 C656.34,531.14 647.55,521.73 642.16,510.73 C635.72,497.61 634.51,491.82 634.60,474.50 C634.67,461.31 635.00,458.46 637.30,450.86 C638.75,446.11 641.07,439.63 642.48,436.46 C643.88,433.29 644.83,430.50 644.60,430.26 C644.36,430.03 642.36,429.59 640.16,429.29 L 636.15 428.76 L 632.69 435.63 C627.90,445.13 623.49,458.08 621.99,467.00 C620.62,475.16 621.26,496.38 623.09,503.50 C632.38,539.62 661.94,563.82 703.00,568.94 ZM 933.94 556.09 C936.39,557.71 938.87,558.88 939.45,558.70 C941.92,557.90 960.68,528.18 968.30,513.00 C978.35,492.99 983.81,479.26 988.91,461.18 C997.42,431.07 999.50,415.50 999.50,382.00 C999.50,352.79 998.82,346.02 993.44,322.00 C984.00,279.81 963.54,237.12 936.42,203.00 C919.02,181.11 887.66,153.16 864.38,138.78 C837.49,122.17 805.45,109.59 773.11,102.92 C739.19,95.93 694.10,95.94 661.50,102.94 C656.55,104.00 649.12,105.60 645.00,106.50 C640.88,107.39 637.07,108.54 636.55,109.06 C636.03,109.58 634.56,110.00 633.30,110.00 C626.40,110.00 591.03,125.68 570.00,138.05 C559.26,144.38 544.29,154.74 542.11,157.37 C541.11,158.57 541.31,158.96 543.20,159.53 C544.46,159.92 549.37,162.01 554.10,164.19 L 562.71 168.15 L 571.60 162.22 C606.59,138.89 645.63,124.81 688.89,119.93 C704.75,118.14 743.45,119.22 758.26,121.87 C782.81,126.26 802.99,132.36 823.53,141.61 C879.57,166.86 922.73,209.27 951.64,267.50 C966.12,296.67 973.35,321.90 977.58,358.00 C981.61,392.46 976.27,435.06 963.45,470.67 C958.57,484.25 945.12,513.11 942.10,516.49 C941.12,517.60 938.57,521.42 936.45,525.00 C934.33,528.58 930.13,534.84 927.12,538.93 L 921.65 546.36 L 925.57 549.75 C927.73,551.61 931.50,554.46 933.94,556.09 ZM 954.00 594.32 C956.47,594.50 959.17,594.71 960.00,594.79 C963.11,595.08 982.12,593.04 985.98,592.01 C989.52,591.05 990.00,590.57 990.00,587.96 L 990.00 585.00 L 979.25 585.00 C955.07,584.99 931.28,574.26 912.39,554.84 C898.68,540.75 888.56,523.14 881.17,500.50 C875.64,483.54 874.01,475.31 866.03,424.00 C862.14,398.98 858.09,373.33 857.02,367.00 C855.96,360.67 853.73,346.95 852.06,336.50 C850.39,326.05 846.97,304.67 844.45,289.00 C834.50,226.98 833.03,217.38 833.01,214.32 C833.00,211.42 832.73,211.14 829.96,211.22 C827.15,211.30 826.60,211.96 822.92,219.67 C820.72,224.28 814.41,238.49 808.90,251.27 C792.03,290.34 785.88,304.38 784.41,307.15 C783.63,308.61 783.00,310.28 783.00,310.85 C783.00,311.91 775.50,329.43 767.35,347.40 C764.89,352.84 763.26,357.57 763.75,357.90 C764.24,358.23 767.44,360.68 770.88,363.36 C774.31,366.03 777.28,368.05 777.47,367.86 C777.85,367.47 799.04,319.91 808.57,298.05 C809.13,296.77 809.64,295.58 810.10,294.50 C812.15,289.70 813.32,286.98 814.20,287.07 C815.55,287.21 816.23,294.01 818.43,310.18 C819.80,320.26 822.33,338.17 824.05,350.00 C825.77,361.83 828.26,378.92 829.58,388.00 C830.90,397.08 832.66,409.90 833.50,416.50 C842.63,488.22 845.66,501.40 859.14,528.00 C879.01,567.24 913.47,591.33 954.00,594.32 ZM 1373.85 695.90 C1374.53,698.15 1375.49,700.00 1375.99,700.00 C1376.50,700.00 1377.82,697.94 1378.93,695.42 C1382.18,688.07 1386.47,683.49 1393.49,679.86 C1397.07,678.01 1399.99,676.23 1400.00,675.91 C1400.00,675.59 1398.15,674.71 1395.89,673.96 C1389.75,671.94 1382.13,664.56 1378.96,657.57 L 1376.27 651.65 L 1373.13 658.22 C1369.51,665.81 1364.89,670.27 1357.10,673.72 L 1351.59 676.16 L 1357.72 679.10 C1364.99,682.59 1372.07,689.96 1373.85,695.90 Z" fill="rgb(1,1,3)"/>
<path d="M 694.50 669.40 C609.86,661.02 540.13,621.96 489.53,554.56 C480.00,541.88 467.21,521.08 461.78,509.46 C455.10,495.16 449.20,479.24 444.50,463.07 C445.47,466.26 446.51,469.52 447.62,472.89 C454.24,492.85 460.62,507.08 462.61,506.32 C463.91,505.82 464.42,507.20 464.26,510.82 C464.23,511.54 464.43,511.90 464.72,511.61 C465.29,511.04 468.00,513.46 468.00,514.54 C468.00,515.25 474.08,525.32 481.86,537.50 C496.16,559.88 522.79,589.34 542.43,604.50 C544.56,606.15 547.48,608.45 548.91,609.61 C550.33,610.77 554.54,613.99 558.26,616.77 C565.62,622.25 566.19,622.32 574.00,618.73 C576.47,617.59 580.08,616.72 582.00,616.79 C587.70,617.00 590.83,617.46 590.47,618.05 C589.75,619.21 604.31,627.00 616.10,631.75 C661.74,650.15 711.57,656.23 756.42,648.87 C769.75,646.68 770.23,646.67 773.49,648.42 C776.07,649.82 776.81,650.82 776.67,652.81 C776.55,654.64 777.22,655.75 779.00,656.68 C779.97,657.18 780.64,657.53 781.35,657.71 C782.95,658.11 784.78,657.65 790.82,656.12 L 791.00 656.08 C825.96,647.22 867.45,624.93 896.88,599.19 L 901.27 595.36 L 895.10 591.15 L 888.94 586.94 L 880.72 593.33 C876.20,596.84 871.38,600.30 870.00,601.02 C867.70,602.22 867.61,602.19 868.89,600.64 C871.18,597.87 869.60,597.84 865.93,600.59 C864.68,601.53 860.91,603.95 856.35,606.77 C861.31,603.64 865.48,600.81 866.86,599.59 C868.86,597.83 871.68,595.51 873.13,594.44 C874.58,593.37 878.53,590.32 881.93,587.66 L 888.09 582.81 L 897.01 588.66 C901.92,591.87 905.95,594.78 905.97,595.13 C906.02,596.04 894.79,605.67 885.50,612.70 C852.55,637.62 814.18,655.40 775.95,663.47 C753.37,668.24 745.30,669.13 721.50,669.47 C708.85,669.65 696.70,669.62 694.50,669.40 ZM 933.94 556.09 C931.50,554.46 927.73,551.61 925.57,549.75 L 921.65 546.36 L 927.12 538.93 C930.13,534.84 934.33,528.58 936.45,525.00 C938.57,521.42 941.12,517.60 942.10,516.49 C942.81,515.69 944.11,513.47 945.74,510.37 C942.59,517.02 940.49,522.16 940.69,522.91 C940.97,523.98 938.36,528.84 934.07,535.25 C930.18,541.07 927.00,546.07 927.00,546.37 C927.00,546.67 929.09,548.50 931.64,550.45 C934.20,552.40 936.87,554.00 937.58,554.00 C938.30,554.00 940.59,551.49 942.69,548.41 C953.85,532.05 957.49,527.25 958.47,527.63 C960.76,528.51 963.44,521.74 963.16,515.79 C962.93,511.07 962.37,509.54 959.94,506.94 C958.32,505.20 957.01,502.82 957.01,501.64 C957.03,498.48 959.23,491.33 965.48,474.11 C978.20,439.08 982.86,410.26 981.60,374.50 C981.23,364.05 980.67,354.04 980.35,352.25 C979.98,350.18 980.18,349.00 980.89,349.00 C981.50,349.00 982.01,349.79 982.03,350.75 C982.10,354.27 984.32,355.76 989.25,355.61 C992.62,355.50 994.15,355.89 994.61,356.98 C995.89,359.99 996.24,395.68 995.11,407.52 C992.36,436.26 986.68,460.51 976.51,487.00 C974.50,492.23 972.70,497.62 972.51,499.00 C972.33,500.38 971.86,502.40 971.49,503.50 C971.11,504.60 972.24,503.08 973.99,500.12 C975.37,497.81 976.78,495.03 978.19,491.88 C975.42,498.39 972.21,505.22 968.30,513.00 C960.68,528.18 941.92,557.90 939.45,558.70 C938.87,558.88 936.39,557.71 933.94,556.09 ZM 540.73 173.00 C539.42,172.50 538.11,172.04 536.79,171.60 C529.54,169.20 517.46,167.15 519.65,168.69 C520.29,169.14 513.76,169.58 505.15,169.69 C496.54,169.79 487.92,170.27 486.00,170.75 C482.91,171.52 483.52,171.71 491.21,172.32 C500.26,173.03 506.36,174.39 516.41,177.92 C519.66,179.07 523.14,180.00 524.16,180.00 C525.17,180.00 526.00,180.44 526.00,180.97 C526.00,181.51 527.46,182.69 529.25,183.60 C535.54,186.79 547.34,196.56 556.16,205.89 C566.56,216.88 573.72,227.26 582.09,243.52 C585.21,249.56 586.84,252.62 587.41,255.86 C588.03,259.36 587.42,263.07 586.12,270.97 L 585.95 272.00 C585.45,275.02 584.59,282.39 584.04,288.37 C583.48,294.35 582.49,301.83 581.84,305.00 C580.81,309.98 580.88,311.23 582.36,314.34 C583.89,317.57 584.37,317.88 587.06,317.34 C590.77,316.60 593.99,319.17 594.03,322.90 C594.08,328.06 588.51,382.59 586.40,397.50 C585.43,404.37 584.48,407.88 583.35,408.72 C582.45,409.39 581.41,409.75 581.04,409.53 C580.68,409.30 579.29,410.44 577.95,412.06 C575.28,415.29 573.25,415.81 572.36,413.51 C572.05,412.68 571.39,412.26 570.90,412.56 C569.47,413.45 569.65,411.32 574.56,370.00 C576.04,357.62 577.33,343.45 577.45,338.50 C577.56,333.55 577.94,325.67 578.29,321.00 C578.64,316.33 578.72,313.17 578.48,314.00 C577.94,315.85 557.96,482.76 558.02,484.94 C558.02,485.25 558.47,484.83 559.00,484.00 C559.73,482.88 559.97,483.38 559.95,486.00 C559.94,487.92 559.28,490.37 558.47,491.44 C557.03,493.34 557.00,493.34 557.00,491.47 C557.00,490.75 556.21,491.70 555.05,493.71 C555.64,492.23 556.00,490.94 556.00,490.03 C556.00,488.91 556.34,488.00 556.75,488.00 C557.16,488.00 557.57,486.76 557.66,485.25 C557.75,483.74 560.52,460.45 563.81,433.50 C570.42,379.41 576.20,329.87 581.13,285.19 L 584.36 255.88 L 578.54 244.37 C562.33,212.27 537.50,188.53 511.03,179.81 C502.57,177.03 499.76,176.61 486.00,176.09 C471.22,175.53 470.49,175.40 470.20,173.40 C469.94,171.61 470.78,171.04 475.74,169.65 C485.21,167.00 497.79,165.70 508.50,166.28 C517.99,166.79 521.08,167.33 534.00,170.72 C535.98,171.25 538.27,172.02 540.73,173.00 ZM 868.00 461.22 C868.00,463.50 867.56,464.00 865.57,464.00 C864.03,464.00 862.91,463.28 862.52,462.05 C862.18,460.98 861.13,459.82 860.20,459.47 C859.26,459.13 856.47,456.41 854.00,453.44 C849.75,448.35 849.29,448.07 845.74,448.54 C842.53,448.96 841.83,448.69 841.01,446.76 C839.83,443.96 832.00,386.94 832.00,381.11 C832.00,374.88 833.19,373.37 838.71,372.60 C841.35,372.23 844.32,371.31 845.33,370.55 C847.91,368.59 852.83,370.44 854.17,373.87 C855.68,377.72 868.00,455.56 868.00,461.22 ZM 879.43 165.11 C878.05,167.35 872.35,164.79 868.70,160.27 C867.70,159.05 864.72,157.40 862.07,156.61 C859.42,155.83 851.84,152.23 845.22,148.62 C819.11,134.38 795.53,125.79 765.00,119.40 C757.58,117.85 750.94,116.03 750.25,115.36 C748.81,113.95 749.52,111.40 751.58,110.61 C753.69,109.80 753.31,108.19 750.35,105.45 L 747.71 103.00 L 750.60 103.00 C756.37,103.00 777.78,107.01 790.00,110.38 C807.15,115.11 822.19,120.66 837.00,127.71 C848.82,133.34 868.00,145.26 868.00,146.97 C868.00,148.28 878.60,155.86 881.42,156.57 C883.81,157.17 887.00,160.37 887.00,162.18 C887.00,162.58 885.42,163.21 883.49,163.57 C881.56,163.93 879.73,164.63 879.43,165.11 ZM 451.99 453.65 C450.42,458.57 449.85,459.13 447.93,457.68 C446.06,456.27 440.76,435.75 438.45,421.00 C435.93,404.82 435.42,373.53 437.40,355.49 C439.56,335.69 442.19,323.33 444.62,321.49 C447.10,319.61 450.92,319.62 451.64,321.49 C451.95,322.32 452.61,322.74 453.10,322.44 C454.46,321.60 454.17,333.04 452.49,346.46 C449.30,372.07 450.86,411.52 456.07,436.91 C458.67,449.57 458.62,450.84 455.61,450.27 C453.57,449.88 453.04,450.37 451.99,453.65 ZM 715.05 509.50 C711.84,521.30 710.72,524.00 709.73,522.34 C709.45,521.88 707.58,517.45 705.58,512.50 C701.42,502.24 702.17,503.94 693.68,485.50 C682.68,461.62 682.27,460.01 686.00,455.28 C687.24,453.70 687.82,451.79 687.53,450.22 C687.23,448.52 687.88,446.75 689.54,444.77 C690.89,443.16 692.02,440.87 692.04,439.67 C692.05,438.48 692.64,436.47 693.34,435.21 C694.55,433.03 694.69,433.00 696.10,434.71 C696.91,435.69 698.75,439.20 700.18,442.50 C708.69,462.15 713.85,473.13 714.62,473.23 C715.10,473.29 717.53,468.69 720.00,463.00 C722.47,457.32 725.02,452.49 725.67,452.28 C727.57,451.64 728.21,455.66 727.08,461.26 C726.50,464.14 725.78,469.42 725.48,473.00 C724.82,480.79 723.74,485.05 720.64,492.15 C719.36,495.09 716.84,502.90 715.05,509.50 ZM 592.39 373.44 L 592.48 372.50 C593.30,363.70 595.11,346.15 596.49,333.50 C599.04,310.12 599.66,296.06 597.92,301.00 C596.86,304.01 597.73,285.67 598.84,281.50 C599.53,278.93 599.88,279.38 603.71,287.61 C608.32,297.54 609.97,302.72 608.16,301.60 C607.41,301.14 607.24,301.46 607.65,302.53 C608.15,303.83 608.45,303.89 609.10,302.84 C609.85,301.62 616.13,313.76 622.94,329.62 C625.08,334.62 627.92,336.98 631.80,337.01 C632.73,337.02 636.51,339.38 640.18,342.26 C643.85,345.14 648.02,348.31 649.43,349.30 C650.84,350.28 652.00,351.99 652.00,353.08 C652.00,355.24 652.92,355.77 657.50,356.26 C660.86,356.61 662.42,359.27 671.97,380.87 C677.48,393.32 677.76,394.50 675.42,395.39 C673.38,396.17 662.78,396.05 657.09,395.18 C652.79,394.52 652.57,394.31 648.83,387.00 C644.55,378.66 642.78,376.15 642.27,377.69 C642.08,378.25 644.02,383.16 646.58,388.60 C648.00,391.63 650.50,397.07 653.27,403.14 C650.09,396.27 646.87,389.43 644.55,384.63 C640.33,375.90 633.69,361.72 629.81,353.13 C625.92,344.53 619.16,329.62 614.78,320.00 C610.41,310.38 605.68,299.90 604.27,296.72 C602.87,293.55 601.56,291.11 601.36,291.30 C600.95,291.72 595.24,344.12 592.39,373.44 ZM 691.66 566.98 C656.52,559.13 631.50,536.20 623.09,503.50 C622.16,499.89 621.54,492.66 621.33,485.35 C621.93,495.16 623.60,503.97 624.01,499.50 C624.17,497.79 624.32,497.87 625.00,500.00 C626.13,503.54 626.09,505.99 624.93,503.50 C624.25,502.03 624.17,502.43 624.62,505.00 C624.95,506.92 625.65,509.17 626.16,510.00 C626.83,511.07 626.93,510.79 626.52,509.00 C626.20,507.62 628.24,511.00 631.06,516.50 C633.87,522.00 636.88,527.29 637.74,528.25 C639.48,530.19 642.07,530.53 643.59,529.01 C645.27,527.33 649.36,527.52 652.25,529.42 C654.96,531.20 656.19,532.81 653.75,531.39 C653.06,530.99 653.38,531.66 654.46,532.89 C657.59,536.45 669.09,543.70 676.84,547.00 C695.45,554.92 717.91,556.65 736.00,551.55 C736.70,551.36 737.37,551.17 738.00,550.99 C746.98,548.46 749.08,547.87 749.54,548.49 C749.69,548.68 749.68,548.98 749.67,549.38 C749.66,549.47 749.66,549.56 749.66,549.66 C749.60,555.98 749.99,557.00 752.44,557.00 C753.78,557.00 755.12,557.38 755.41,557.85 C756.13,559.02 752.55,560.53 742.77,563.18 C735.50,565.15 731.94,565.43 713.28,565.51 C696.73,565.58 689.56,566.06 691.66,566.98 ZM 808.60 430.60 C807.89,432.44 806.51,432.37 804.54,430.40 C803.53,429.39 802.07,429.02 800.58,429.39 C799.11,429.76 797.77,429.43 796.99,428.49 C796.31,427.67 795.20,427.00 794.52,427.00 C793.84,427.00 791.31,425.43 788.89,423.51 C786.48,421.59 784.02,420.02 783.43,420.01 C782.84,420.00 781.38,418.88 780.19,417.50 C778.99,416.12 777.34,415.00 776.51,415.00 C775.68,415.00 775.00,414.61 775.00,414.13 C775.00,413.64 771.84,412.23 767.98,410.99 C764.11,409.75 760.70,408.33 760.40,407.84 C760.09,407.34 757.97,406.05 755.67,404.97 C753.38,403.88 748.35,400.51 744.50,397.48 C740.65,394.44 736.01,390.80 734.18,389.38 C732.36,387.96 731.02,386.65 731.21,386.46 C731.66,386.01 742.36,385.07 753.23,384.55 C758.03,384.31 762.75,383.68 763.71,383.14 C764.86,382.50 766.13,382.53 767.47,383.24 C771.08,385.15 783.33,395.57 789.93,402.33 C799.92,412.59 809.78,427.52 808.60,430.60 ZM 701.43 363.63 C711.28,371.53 719.40,378.00 719.47,378.00 C719.70,378.00 719.22,350.42 718.93,347.23 C718.69,344.59 717.58,343.17 713.07,339.79 C701.71,331.27 690.79,321.68 686.97,316.85 C675.70,302.58 672.46,284.55 677.99,266.79 C680.06,260.15 683.83,253.35 687.04,250.50 L 689.29 248.50 L 687.99 251.00 C687.04,252.84 688.00,252.29 691.63,248.91 C694.49,246.25 698.79,243.45 703.31,241.11 C699.70,243.02 696.38,245.36 693.47,248.12 C683.37,257.67 679.00,268.35 679.00,283.50 C679.00,303.63 685.54,314.13 710.00,333.22 C721.79,342.43 731.75,350.21 740.18,356.82 C733.31,351.50 728.15,347.60 727.27,347.14 C723.54,345.15 725.68,348.87 731.10,353.76 C734.78,357.08 735.69,358.51 735.27,360.26 C734.47,363.58 722.90,380.87 721.25,381.21 C720.21,381.42 720.95,382.38 729.41,389.25 C727.24,387.62 725.41,386.32 724.10,385.50 C723.22,384.95 719.58,382.20 716.00,379.40 C712.42,376.59 705.22,371.00 700.00,366.96 C669.39,343.30 659.33,331.19 654.35,312.00 C651.09,299.45 652.42,273.67 656.64,267.53 C657.39,266.44 658.00,264.71 658.00,263.67 C658.00,260.05 662.20,253.07 668.60,245.69 C668.17,246.51 668.43,246.77 669.48,246.37 C671.79,245.48 671.35,246.60 667.17,252.29 C665.07,255.16 662.80,258.40 662.13,259.50 C660.98,261.37 660.94,261.34 661.44,259.00 C662.50,254.09 656.74,267.33 655.42,272.86 C653.91,279.17 653.61,284.35 655.00,280.00 C655.50,278.45 655.84,282.42 655.92,290.50 C656.05,305.79 657.64,313.59 662.64,323.45 C669.28,336.53 674.90,342.36 701.43,363.63 ZM 750.58 220.39 C754.72,220.98 759.18,221.69 764.00,222.51 C769.22,223.41 775.64,224.00 778.25,223.82 L 783.00 223.50 L 783.01 239.50 C783.01,248.30 783.30,260.56 783.66,266.75 L 784.31 278.00 L 780.15 278.00 C776.26,278.00 776.00,277.82 776.00,275.18 C776.00,271.55 773.34,262.61 770.76,257.54 C767.61,251.36 759.46,243.38 753.07,240.09 C756.11,241.52 758.90,243.22 761.36,245.18 C765.09,248.17 765.20,248.19 764.49,245.89 C762.85,240.48 751.46,234.24 741.77,233.43 C738.33,233.15 735.08,232.48 734.56,231.96 C734.03,231.43 732.71,231.00 731.63,231.00 C727.37,231.00 724.59,225.77 726.91,222.11 C728.02,220.36 739.55,221.22 753.17,224.08 C758.30,225.16 766.16,226.32 770.63,226.66 L 778.77 227.28 L 779.39 231.82 C779.73,234.32 780.30,241.47 780.66,247.71 C781.23,257.75 781.13,258.99 779.74,258.46 C778.05,257.81 776.38,261.18 777.49,262.99 C778.59,264.77 780.00,264.07 780.02,261.75 C780.03,259.93 780.22,259.79 781.00,261.00 C781.64,262.00 781.97,256.05 781.98,243.25 L 782.00 224.00 L 776.75 223.95 C773.86,223.92 767.90,223.25 763.50,222.47 C760.50,221.94 755.48,221.13 750.58,220.39 ZM 954.00 594.32 C913.47,591.33 879.01,567.24 859.14,528.00 C850.98,511.89 846.65,500.71 842.48,478.46 C844.11,486.91 845.72,493.19 847.67,499.36 C849.15,504.04 850.49,506.82 850.93,506.11 C851.87,504.59 853.12,506.08 855.01,511.00 C858.30,519.60 867.32,536.24 873.03,544.24 C881.80,556.55 894.78,568.71 905.85,575.01 C907.31,575.84 910.09,577.50 912.04,578.71 C917.58,582.15 933.62,587.94 941.95,589.51 C951.06,591.23 978.42,591.04 981.50,589.23 C983.18,588.25 982.48,588.06 977.14,588.03 C971.91,588.01 970.89,587.73 971.36,586.50 C971.68,585.67 971.39,585.00 970.72,584.99 C970.05,584.98 967.70,584.72 965.50,584.41 C962.51,583.98 961.88,584.10 963.00,584.90 C965.56,586.73 960.49,586.23 952.61,583.89 C924.91,575.66 896.81,549.11 885.52,520.50 L 883.94 516.50 L 886.47 519.50 L 888.99 522.50 L 886.39 515.50 C882.81,505.85 880.32,498.72 878.15,490.64 C879.05,493.86 880.03,496.99 881.17,500.50 C888.56,523.14 898.68,540.75 912.39,554.84 C931.28,574.26 955.07,584.99 979.25,585.00 L 990.00 585.00 L 990.00 587.96 C990.00,590.57 989.52,591.05 985.98,592.01 C982.12,593.04 963.11,595.08 960.00,594.79 C959.17,594.71 956.47,594.50 954.00,594.32 ZM 1373.85 695.90 C1372.07,689.96 1364.99,682.59 1357.72,679.10 L 1351.59 676.16 L 1357.10 673.72 C1364.89,670.27 1369.51,665.81 1373.13,658.22 L 1376.27 651.65 L 1378.96 657.57 C1382.13,664.56 1389.75,671.94 1395.89,673.96 C1398.15,674.71 1400.00,675.59 1400.00,675.91 C1399.99,676.23 1397.07,678.01 1393.49,679.86 C1386.47,683.49 1382.18,688.07 1378.93,695.42 C1377.82,697.94 1376.50,700.00 1375.99,700.00 C1375.49,700.00 1374.53,698.15 1373.85,695.90 ZM 748.33 120.61 C730.39,118.93 701.92,118.46 688.89,119.93 C645.63,124.81 606.59,138.89 571.60,162.22 L 562.71 168.15 L 554.10 164.19 C549.37,162.01 544.46,159.92 543.20,159.53 C541.31,158.96 541.11,158.57 542.11,157.37 C544.29,154.74 559.26,144.38 570.00,138.05 C572.64,136.50 575.50,134.90 578.51,133.28 C595.15,123.93 621.13,112.59 630.71,110.38 C621.51,112.51 597.26,123.17 578.51,133.28 C577.37,133.92 576.28,134.54 575.24,135.16 C565.23,141.08 562.72,143.00 565.00,143.00 C566.98,143.00 564.97,145.01 557.40,150.61 C553.33,153.62 550.00,156.53 550.00,157.08 C550.00,157.63 552.95,159.41 556.55,161.02 L 563.10 163.96 L 572.80 157.43 C601.17,138.32 640.86,123.46 678.16,117.97 C690.95,116.09 711.07,115.30 703.00,117.00 C700.88,117.45 705.74,117.79 715.38,117.87 C724.12,117.94 734.02,118.44 737.38,118.97 C739.65,119.33 743.91,119.97 748.33,120.61 ZM 449.67 286.03 C460.89,254.40 477.38,225.00 498.17,200.25 C501.98,195.71 505.80,192.00 506.65,192.00 C508.98,192.00 525.00,199.72 525.00,200.84 C525.00,201.38 521.96,205.35 518.25,209.66 C502.48,228.00 492.31,243.47 481.54,265.50 C477.39,274.00 473.80,282.23 470.75,290.21 C472.95,284.09 474.46,278.29 474.56,275.47 C474.71,271.72 475.96,268.04 479.51,260.97 C488.57,242.94 502.13,222.37 512.79,210.50 L 513.08 210.18 C517.55,205.20 519.43,203.11 519.02,201.67 C518.71,200.60 517.15,199.88 514.45,198.61 C511.42,197.17 508.46,196.00 507.88,196.00 C503.99,196.00 480.38,228.70 467.79,251.50 C465.99,254.76 465.03,255.80 465.01,254.50 C464.94,250.32 456.14,268.48 449.67,286.03 ZM 963.64 295.30 C960.32,286.11 956.36,277.01 951.64,267.50 C932.83,229.61 907.99,198.42 877.49,174.30 C883.24,178.75 888.83,183.27 892.50,186.51 C896.35,189.91 900.00,192.52 900.62,192.31 C902.23,191.75 912.15,202.18 911.53,203.77 C911.24,204.53 911.47,204.82 912.08,204.45 C914.77,202.79 933.92,227.45 945.40,247.36 C955.58,265.01 958.36,271.13 958.63,276.50 C958.77,279.11 960.87,286.94 963.64,295.30 ZM 834.66 425.53 C834.29,422.63 833.90,419.62 833.50,416.50 C832.66,409.90 830.90,397.08 829.58,388.00 C828.26,378.92 825.77,361.83 824.05,350.00 C822.33,338.17 819.80,320.26 818.43,310.18 C816.23,294.01 815.55,287.21 814.20,287.07 C813.32,286.98 812.15,289.70 810.10,294.50 C809.64,295.58 809.13,296.77 808.57,298.05 C804.26,307.93 797.58,323.05 791.51,336.70 C797.88,322.01 804.06,307.38 804.32,305.99 C804.80,303.55 804.70,302.95 804.01,304.00 C801.27,308.19 803.55,301.49 809.00,289.34 C812.30,281.98 815.00,275.52 815.00,274.98 C815.00,274.44 815.35,274.00 815.77,274.00 C816.86,274.00 818.57,283.66 821.54,306.65 C822.95,317.57 824.73,330.55 825.48,335.50 C827.14,346.35 828.29,363.25 827.01,358.00 C825.59,352.17 826.90,366.56 829.64,387.00 C831.01,397.17 832.78,410.67 833.58,417.00 C833.95,419.96 834.31,422.80 834.66,425.53 ZM 552.00 499.62 C549.82,504.00 549.05,505.62 549.28,505.78 C549.42,505.88 549.95,505.42 550.76,504.71 C550.84,504.64 550.92,504.57 551.00,504.50 L 553.29 502.50 L 550.90 506.24 C548.52,509.95 543.09,513.28 537.36,514.53 C535.17,515.01 534.85,514.91 536.00,514.10 C537.33,513.15 537.33,513.03 536.00,513.03 C535.17,513.02 532.70,513.33 530.50,513.70 C526.86,514.31 526.73,514.44 529.00,515.09 L 531.50 515.80 L 528.83 515.90 C525.23,516.03 522.89,517.01 523.56,518.10 C524.36,519.39 602.71,519.27 603.51,517.98 C603.86,517.42 604.56,517.23 605.07,517.54 C605.58,517.86 606.00,517.25 606.00,516.19 C606.00,514.64 605.10,514.16 601.49,513.75 C599.27,513.50 596.49,512.64 593.77,511.47 C595.88,512.20 598.14,512.70 600.42,512.92 L 606.50 513.50 L 606.50 521.50 L 520.00 522.02 L 520.00 513.00 L 526.49 513.00 C533.89,513.00 540.90,510.71 546.46,506.47 C548.14,505.18 550.22,502.51 552.00,499.62 ZM 508.85 544.00 C526.27,567.53 560.78,598.55 584.58,612.07 C582.02,610.67 580.32,609.66 579.50,609.05 C577.63,607.67 574.87,606.98 575.54,608.06 C576.41,609.48 570.15,606.79 565.79,603.87 C555.90,597.26 545.34,588.51 534.65,578.07 C522.82,566.52 508.00,550.04 504.62,544.66 C502.85,541.84 502.85,541.82 505.00,542.50 C507.01,543.14 507.08,543.01 505.96,540.84 C505.29,539.56 503.76,537.15 502.56,535.50 C499.55,531.38 494.73,523.79 490.31,516.44 C495.90,525.48 502.85,535.89 508.85,544.00 ZM 744.58 401.40 C751.04,406.58 759.21,413.45 763.24,417.10 C767.50,420.96 770.69,423.30 770.33,422.31 C769.03,418.69 775.11,425.38 780.58,433.59 C790.41,448.34 793.63,460.97 792.72,481.13 C792.18,492.99 790.65,500.18 786.92,508.50 C784.98,512.80 780.92,518.07 779.98,517.49 C779.54,517.21 777.55,519.21 775.55,521.93 C771.82,527.01 767.36,531.52 762.19,535.44 C763.78,534.21 765.31,532.90 766.81,531.51 C772.03,526.68 773.94,524.28 779.93,515.00 C780.81,513.62 782.53,510.02 783.74,507.00 C791.79,486.87 791.75,465.42 783.63,446.17 C779.41,436.15 775.48,430.50 765.59,420.20 C761.58,416.02 753.05,408.48 744.58,401.40 ZM 825.74 214.10 C825.11,215.34 824.38,217.14 823.35,219.79 C821.58,224.32 820.61,227.74 821.18,227.39 C821.83,226.99 821.99,227.53 821.61,228.87 C821.27,230.04 820.72,232.01 820.37,233.25 C820.02,234.49 818.47,238.20 816.92,241.50 C815.37,244.80 812.32,251.77 810.14,257.00 C800.86,279.24 786.01,311.34 785.32,310.66 C785.13,310.47 785.92,308.18 787.07,305.57 C788.22,302.97 788.98,300.65 788.75,300.42 C788.52,300.19 784.82,307.99 780.51,317.75 C779.06,321.05 777.44,324.70 775.84,328.33 C780.05,318.66 783.00,311.52 783.00,310.85 C783.00,310.28 783.63,308.61 784.41,307.15 C785.88,304.38 792.03,290.34 808.90,251.27 C814.41,238.49 820.72,224.28 822.92,219.67 C824.13,217.12 825.01,215.34 825.74,214.10 ZM 818.64 449.01 C818.94,450.44 819.22,451.90 819.47,453.38 C823.41,476.29 818.95,502.76 808.10,520.91 C796.46,540.36 776.73,556.07 754.59,563.50 C754.21,563.63 753.83,563.75 753.45,563.88 C761.78,561.13 769.60,557.44 776.54,552.91 C787.44,545.79 797.01,536.56 791.25,538.72 C790.29,539.08 792.07,536.58 795.22,533.16 C802.32,525.46 808.12,515.81 811.89,505.44 C814.85,497.30 817.87,482.22 818.17,474.07 C818.33,469.62 818.35,469.65 819.06,475.50 C819.51,479.32 819.68,475.69 819.53,465.50 C819.42,458.40 819.13,452.96 818.64,449.01 ZM 978.44 274.90 C971.59,258.92 962.59,240.99 958.99,237.00 C955.89,233.57 955.91,233.65 959.98,241.25 C964.78,250.20 964.77,251.82 959.97,243.25 C955.08,234.53 940.45,213.47 933.20,204.71 C926.98,197.19 925.37,193.18 930.50,198.00 C931.88,199.29 933.00,200.13 933.00,199.87 C933.00,199.61 931.40,197.84 929.44,195.95 C926.85,193.44 926.07,193.05 926.57,194.50 C926.95,195.60 924.68,193.90 921.54,190.72 C917.62,186.76 916.01,184.42 916.43,183.32 C916.77,182.44 915.41,180.38 912.85,177.55 C921.85,186.21 930.07,195.01 936.42,203.00 C953.39,224.35 967.75,249.06 978.44,274.90 ZM 846.20 299.86 C844.99,293.37 844.64,293.80 844.04,296.00 C843.29,298.74 841.40,289.24 836.08,256.00 C832.57,234.09 831.60,225.62 832.93,228.50 C833.75,230.25 833.87,230.13 833.92,227.50 C833.95,226.02 833.75,222.32 833.45,218.90 C834.38,226.02 837.11,243.24 844.45,289.00 C845.00,292.41 845.59,296.08 846.20,299.86 ZM 652.48 329.95 C645.32,314.33 640.51,303.96 639.49,302.00 C638.77,300.62 634.26,291.62 629.47,282.00 C624.67,272.38 621.03,265.29 621.38,266.25 C621.72,267.21 622.24,268.79 622.54,269.75 C623.36,272.43 608.24,241.92 607.05,238.50 L 606.01 235.50 L 608.02 238.00 C609.56,239.91 609.37,239.08 607.21,234.50 C605.55,230.96 604.34,228.45 603.14,226.27 C609.04,235.71 614.58,246.51 619.98,259.00 C626.26,273.51 635.07,292.84 639.57,302.00 C640.78,304.47 645.75,315.25 652.48,329.95 ZM 780.05 516.25 C780.02,516.66 780.24,517.00 780.54,517.00 C781.11,517.00 785.03,508.28 784.95,507.17 C784.90,506.34 780.11,515.21 780.05,516.25 ZM 905.02 198.52 C910.80,204.41 911.15,204.21 905.84,198.05 C903.50,195.32 901.36,193.31 901.10,193.57 C900.84,193.83 902.60,196.06 905.02,198.52 ZM 985.53 472.33 C990.33,457.46 994.65,439.81 997.35,423.18 C995.76,434.91 993.13,446.26 988.91,461.18 C987.82,465.06 986.70,468.74 985.53,472.33 ZM 433.17 380.54 C433.16,371.99 433.40,363.96 433.92,358.06 C434.46,351.98 435.19,345.91 436.12,339.88 C434.23,353.00 433.26,366.53 433.17,380.54 ZM 624.62 274.34 C625.46,275.90 625.97,277.36 625.74,277.59 C625.30,278.03 622.97,273.39 623.04,272.20 C623.06,271.82 623.77,272.78 624.62,274.34 ZM 635.54 635.06 C623.95,631.14 612.55,626.39 601.50,620.84 C612.59,626.14 624.65,631.18 635.54,635.06 ZM 915.00 181.50 C915.68,182.32 915.85,182.98 915.37,182.96 C914.18,182.91 911.69,180.00 912.84,180.00 C913.34,180.00 914.32,180.68 915.00,181.50 ZM 786.67 394.34 C789.63,397.05 791.67,399.17 793.96,401.65 C803.12,411.56 809.64,421.75 814.06,433.26 C808.27,418.87 799.40,406.27 786.67,394.34 ZM 869.05 167.91 C855.81,158.32 841.57,149.97 826.38,142.91 C837.76,148.15 848.73,154.15 859.00,160.82 C861.57,162.49 865.14,165.01 869.05,167.91 ZM 956.60 276.40 C956.96,277.33 957.47,277.86 957.75,277.59 C958.02,277.31 957.96,276.33 957.60,275.40 C957.24,274.47 956.73,273.94 956.45,274.21 C956.18,274.49 956.24,275.47 956.60,276.40 ZM 696.96 223.97 C705.53,220.33 713.74,218.49 724.15,218.31 C714.26,218.70 705.16,220.59 696.96,223.97 ZM 475.03 275.50 C475.03,276.05 475.47,275.83 476.00,275.00 C476.53,274.17 476.97,273.05 476.97,272.50 C476.97,271.95 476.53,272.17 476.00,273.00 C475.47,273.83 475.03,274.95 475.03,275.50 ZM 436.58 429.50 C436.19,427.32 435.83,425.15 435.50,423.00 C434.64,417.45 433.99,409.05 433.60,399.86 C434.11,410.45 435.06,420.06 436.58,429.50 ZM 461.42 320.88 C459.15,330.52 456.82,341.79 456.52,345.00 C457.00,339.87 458.92,330.70 461.42,320.88 ZM 595.55 215.15 C595.13,214.60 594.69,214.03 594.22,213.42 C586.42,203.33 576.98,194.34 566.71,187.04 C577.60,194.62 587.01,203.73 595.55,215.15 ZM 969.33 451.99 C973.02,438.40 975.70,424.25 977.27,410.22 C975.75,424.56 973.14,438.34 969.33,451.99 ZM 723.42 235.14 C717.40,235.74 711.54,237.28 706.20,239.69 C710.02,237.92 713.82,236.57 716.89,236.00 C719.05,235.60 721.24,235.31 723.42,235.14 ZM 621.35 474.30 C621.47,471.40 621.68,468.86 621.99,467.00 C622.36,464.79 622.91,462.32 623.61,459.73 C622.43,464.61 621.68,469.45 621.35,474.30 ZM 581.41 489.21 C581.69,481.62 582.69,470.32 584.45,453.00 L 584.82 449.31 C582.85,469.22 581.77,481.43 581.41,489.21 ZM 678.44 645.63 C696.55,648.39 714.54,649.21 731.38,648.01 C714.05,649.25 696.23,648.42 678.44,645.63 ZM 995.23 330.22 C993.43,321.74 991.18,312.57 988.82,304.23 C990.57,310.15 992.11,316.08 993.44,322.00 C994.11,324.98 994.70,327.69 995.23,330.22 ZM 681.39 232.98 C684.81,230.11 687.70,228.35 692.00,226.24 C688.25,228.15 684.71,230.40 681.39,232.98 ZM 999.50 380.52 C999.48,371.63 999.31,362.85 998.97,356.10 C999.38,362.62 999.49,370.12 999.50,380.52 ZM 703.00 568.94 C701.45,568.75 699.92,568.53 698.40,568.28 C699.94,568.49 701.73,568.72 703.78,568.95 C706.43,569.26 709.10,569.48 711.77,569.59 C708.73,569.50 705.79,569.29 703.00,568.94 ZM 977.18 354.76 C976.25,347.21 975.16,340.13 973.90,333.37 C975.28,340.49 976.38,347.66 977.18,354.76 ZM 952.03 497.50 C954.33,492.58 956.68,487.31 958.76,482.42 C956.69,487.42 954.45,492.44 952.03,497.50 ZM 587.72 420.71 C589.28,405.29 590.21,396.05 590.94,388.55 C590.15,396.79 589.37,404.65 588.98,408.50 C588.54,412.77 588.12,416.83 587.72,420.71 ZM 767.22 347.70 C764.85,353.13 763.32,357.61 763.76,357.91 C764.24,358.23 767.44,360.68 770.88,363.36 C767.44,360.68 764.24,358.23 763.75,357.90 C763.27,357.58 764.83,353.01 767.22,347.70 ZM 830.71 211.21 L 829.64 211.30 C828.90,211.36 828.32,211.44 827.82,211.66 C828.42,211.33 829.08,211.25 829.96,211.22 C830.23,211.21 830.48,211.21 830.71,211.21 ZM 671.95 444.47 C677.80,457.43 682.13,467.01 685.49,474.41 C681.54,465.72 676.94,455.54 671.95,444.47 ZM 866.03 424.00 C862.14,398.98 858.09,373.33 857.02,367.00 C856.80,365.69 856.50,363.87 856.14,361.66 C856.48,363.74 856.78,365.56 857.02,367.00 C858.09,373.33 862.14,398.98 866.03,424.00 ZM 833.01 214.21 L 832.82 212.18 C832.97,212.63 833.01,213.28 833.01,214.21 ZM 584.41 505.69 C584.08,505.36 583.80,505.03 583.58,504.72 C583.39,504.46 583.22,504.20 583.06,503.91 C583.23,504.19 583.42,504.45 583.62,504.72 C583.86,505.05 584.13,505.37 584.41,505.69 ZM 777.48 367.84 C777.48,367.85 777.47,367.85 777.47,367.86 C777.46,367.86 777.45,367.87 777.43,367.87 C777.45,367.87 777.46,367.86 777.47,367.86 C777.47,367.85 777.48,367.85 777.48,367.84 Z" fill="rgb(147,116,54)"/>
<path d="M 451.99 453.65 C453.04,450.37 453.57,449.88 455.61,450.27 C458.62,450.84 458.67,449.57 456.07,436.91 C455.75,435.36 455.45,433.76 455.16,432.11 C459.35,453.05 467.35,479.42 471.11,483.82 C471.95,484.80 472.43,486.20 472.19,486.94 C471.89,487.83 472.18,488.01 473.04,487.48 C473.98,486.89 474.16,487.14 473.68,488.39 C473.32,489.33 473.42,489.86 473.91,489.56 C474.39,489.26 475.51,490.81 476.39,493.01 C477.94,496.88 479.70,498.15 479.36,495.87 C479.63,496.61 479.89,497.30 480.10,497.91 C481.21,501.08 485.20,508.19 490.31,516.44 C494.73,523.79 499.55,531.38 502.56,535.50 C503.76,537.15 505.29,539.56 505.96,540.84 C507.08,543.01 507.01,543.14 505.00,542.50 C502.85,541.82 502.85,541.84 504.62,544.66 C508.00,550.04 522.82,566.52 534.65,578.07 C545.34,588.51 555.90,597.26 565.79,603.87 C570.15,606.79 576.41,609.48 575.54,608.06 C574.87,606.98 577.63,607.67 579.50,609.05 C580.32,609.66 582.02,610.67 584.58,612.07 C589.69,614.97 595.45,617.95 601.50,620.84 C612.55,626.39 623.95,631.14 635.54,635.06 L 635.54 635.06 C640.00,636.65 644.26,638.04 648.18,639.18 C645.12,638.39 641.79,637.50 638.07,636.49 C631.73,634.77 629.87,635.28 635.90,637.09 C638.16,637.76 640.00,638.64 640.00,639.04 C640.00,639.79 642.78,640.93 647.27,642.24 C636.74,639.37 626.32,635.87 616.10,631.75 C604.31,627.00 589.75,619.21 590.47,618.05 C590.83,617.46 587.70,617.00 582.00,616.79 C580.08,616.72 576.47,617.59 574.00,618.73 C566.19,622.32 565.62,622.25 558.26,616.77 C554.54,613.99 550.33,610.77 548.91,609.61 C547.48,608.45 544.56,606.15 542.43,604.50 C534.99,598.76 526.55,590.97 518.16,582.28 C519.40,583.49 520.44,584.43 521.20,584.99 C522.85,586.21 524.94,587.33 525.85,587.49 C526.76,587.64 527.38,588.30 527.23,588.96 C527.07,589.63 527.45,589.84 528.10,589.44 C528.82,588.99 529.07,589.25 528.76,590.11 C528.49,590.87 528.95,592.29 529.79,593.25 C531.62,595.35 532.41,595.51 531.69,593.62 C531.39,592.86 531.68,591.72 532.31,591.09 C533.18,590.22 532.94,589.80 531.30,589.37 C529.19,588.82 529.18,588.70 530.74,585.41 C531.63,583.55 533.18,581.76 534.18,581.44 C535.68,580.97 534.38,579.08 526.75,570.67 C521.66,565.07 514.71,557.30 511.29,553.41 C507.88,549.52 504.41,546.33 503.59,546.33 C502.76,546.33 502.36,546.77 502.68,547.30 C503.01,547.83 502.65,548.04 501.89,547.76 C499.95,547.07 496.80,548.87 497.62,550.19 C497.99,550.80 498.45,552.64 498.65,554.30 C499.00,557.30 498.99,557.31 496.85,555.40 L 494.71 553.50 L 496.01 556.00 C497.29,558.44 501.84,564.19 506.82,569.98 C497.19,559.02 488.28,547.55 481.86,537.50 C474.08,525.32 468.00,515.25 468.00,514.54 C468.00,513.46 465.29,511.04 464.72,511.61 C464.43,511.90 464.23,511.54 464.26,510.82 C464.42,507.20 463.91,505.82 462.61,506.32 C460.62,507.08 454.24,492.85 447.62,472.89 C446.51,469.52 445.47,466.26 444.50,463.07 L 444.50 463.07 C441.24,451.85 438.55,440.50 436.58,429.50 C435.06,420.06 434.11,410.45 433.60,399.86 L 433.60 399.86 C433.33,393.57 433.18,386.91 433.17,380.54 C433.17,380.41 433.18,380.29 433.18,380.17 C433.18,380.45 433.18,380.72 433.19,381.00 C433.29,388.42 433.52,392.02 433.70,389.00 C434.02,383.73 434.42,379.99 437.48,353.86 C438.95,341.27 441.08,328.61 444.09,314.67 C446.17,305.04 446.68,296.47 444.91,300.90 C444.78,301.22 444.64,301.64 444.47,302.14 C446.05,296.71 447.79,291.34 449.67,286.03 C456.14,268.48 464.94,250.32 465.01,254.50 C465.03,255.80 465.99,254.76 467.79,251.50 C479.08,231.04 499.25,202.61 506.09,196.99 C503.63,199.22 499.91,204.47 500.96,204.82 C501.54,205.01 501.79,205.53 501.52,205.97 C501.24,206.41 501.69,207.33 502.51,208.01 C503.70,208.99 504.00,208.98 504.00,207.96 C504.00,207.25 504.28,206.95 504.62,207.29 C504.97,207.63 506.08,206.92 507.09,205.71 C508.70,203.78 508.95,203.72 509.09,205.25 C509.18,206.21 509.36,207.45 509.50,208.00 C509.64,208.55 509.81,209.45 509.88,210.00 C510.12,211.93 511.78,210.96 515.87,206.52 C516.95,205.36 517.93,204.25 518.66,203.39 C517.90,204.80 516.07,206.84 513.08,210.18 L 512.79 210.50 C502.13,222.37 488.57,242.94 479.51,260.97 C475.96,268.04 474.71,271.72 474.56,275.47 C474.46,278.29 472.95,284.09 470.75,290.21 C467.91,297.67 465.54,304.92 463.64,312.00 C462.96,314.52 462.19,317.61 461.42,320.88 C458.92,330.70 457.00,339.87 456.52,345.00 C454.54,366.33 453.81,382.15 454.47,396.77 C453.77,385.22 453.89,373.95 454.87,363.33 C456.00,351.20 455.36,343.65 453.84,351.00 C453.44,352.92 452.59,356.98 451.95,360.00 C450.64,366.27 450.87,388.98 452.05,407.03 C450.35,386.15 450.39,363.31 452.49,346.46 C454.17,333.04 454.46,321.60 453.10,322.44 C452.61,322.74 451.95,322.32 451.64,321.49 C450.92,319.62 447.10,319.61 444.62,321.49 C442.19,323.33 439.56,335.69 437.40,355.49 C435.42,373.53 435.93,404.82 438.45,421.00 C440.76,435.75 446.06,456.27 447.93,457.68 C449.85,459.13 450.42,458.57 451.99,453.65 ZM 868.00 461.22 C868.00,459.51 866.87,451.20 865.26,440.34 C868.62,462.02 870.96,473.50 872.51,476.01 C873.91,478.29 874.73,476.73 873.95,473.25 C873.69,472.06 872.24,463.19 870.20,450.40 C873.63,471.59 875.58,481.46 878.15,490.64 C880.32,498.72 882.81,505.85 886.39,515.50 L 888.99 522.50 L 886.47 519.50 L 883.94 516.50 L 885.52 520.50 C886.37,522.66 887.32,524.80 888.35,526.93 C886.43,523.88 884.16,520.76 882.52,519.00 C880.23,516.53 877.61,513.30 876.71,511.84 C875.71,510.22 873.78,508.90 871.78,508.48 C868.35,507.75 861.00,501.10 861.00,498.72 C861.00,497.97 859.99,496.42 858.75,495.26 C857.51,494.11 855.19,491.77 853.58,490.08 C850.46,486.78 848.00,486.07 848.00,488.47 C848.00,489.28 849.74,495.25 851.87,501.73 C854.39,509.41 857.85,517.59 861.75,525.29 C858.92,519.92 856.43,514.71 855.01,511.00 C853.12,506.08 851.87,504.59 850.93,506.11 C850.49,506.82 849.15,504.04 847.67,499.36 C845.73,493.19 844.11,486.91 842.48,478.47 L 842.48 478.46 C840.06,465.57 837.69,448.96 834.66,425.53 C834.31,422.80 833.95,419.96 833.58,417.00 C832.78,410.67 831.01,397.17 829.64,387.00 C826.90,366.56 825.59,352.17 827.01,358.00 C828.29,363.25 827.14,346.35 825.48,335.50 C824.86,331.42 823.55,321.89 822.31,312.55 C824.66,329.42 827.17,346.66 827.61,348.18 C828.24,350.37 831.89,349.72 836.94,346.54 C839.03,345.22 842.49,343.99 844.62,343.82 L 848.50 343.50 L 848.47 338.50 C848.45,335.75 847.23,326.52 845.76,318.00 C844.28,309.48 842.58,298.45 841.98,293.50 C840.72,283.05 837.10,267.00 836.00,267.00 C835.58,267.00 834.66,267.70 833.95,268.57 C833.23,269.43 831.32,270.82 829.70,271.66 C828.07,272.50 825.79,274.29 824.62,275.64 C823.46,276.99 821.49,278.17 820.25,278.26 C819.01,278.35 818.00,278.81 818.00,279.27 C818.00,279.99 818.46,283.88 819.19,289.47 C817.60,278.74 816.53,274.00 815.77,274.00 C815.35,274.00 815.00,274.44 815.00,274.98 C815.00,275.52 812.30,281.98 809.00,289.34 C803.55,301.49 801.27,308.19 804.01,304.00 C804.70,302.95 804.80,303.55 804.32,305.99 C804.06,307.38 797.88,322.01 791.51,336.70 C788.59,343.25 785.82,349.47 783.52,354.60 C785.34,350.24 786.77,346.44 786.52,346.19 C786.26,345.93 785.35,346.30 784.49,347.01 C783.13,348.14 783.05,348.00 783.85,345.90 C786.21,339.71 790.29,330.45 790.86,330.00 C791.21,329.73 791.63,328.83 791.80,328.00 C792.16,326.20 801.90,303.92 802.96,302.50 C804.22,300.79 807.14,290.81 806.56,290.22 C806.25,289.92 806.00,290.44 806.00,291.39 C806.00,292.34 805.55,292.84 805.00,292.50 C804.45,292.16 804.00,292.32 804.00,292.85 C804.00,294.13 795.31,298.31 794.15,297.59 C793.65,297.28 791.14,301.86 788.56,307.77 C781.25,324.54 774.57,337.52 773.35,337.29 C772.75,337.18 770.15,341.60 767.59,347.12 L 766.13 350.26 C766.47,349.44 766.83,348.58 767.22,347.70 L 767.22 347.70 C767.26,347.60 767.31,347.50 767.35,347.40 C770.39,340.70 773.33,334.07 775.84,328.33 C777.44,324.70 779.06,321.05 780.51,317.75 C784.82,307.99 788.52,300.19 788.75,300.42 C788.98,300.65 788.22,302.97 787.07,305.57 C785.92,308.18 785.13,310.47 785.32,310.66 C786.01,311.34 800.86,279.24 810.14,257.00 C812.32,251.77 815.37,244.80 816.92,241.50 C818.47,238.20 820.02,234.49 820.37,233.25 C820.72,232.01 821.27,230.04 821.61,228.87 C821.99,227.53 821.83,226.99 821.18,227.39 C820.61,227.74 821.58,224.32 823.35,219.79 C824.38,217.14 825.11,215.34 825.74,214.10 C826.52,212.76 827.13,212.05 827.82,211.66 C828.32,211.44 828.90,211.36 829.64,211.30 L 830.71 211.21 C832.00,211.22 832.57,211.41 832.82,212.18 L 833.01 214.21 L 833.01 214.32 C833.02,215.12 833.12,216.37 833.45,218.90 C833.75,222.32 833.95,226.02 833.92,227.50 C833.87,230.13 833.75,230.25 832.93,228.50 C831.60,225.62 832.57,234.09 836.08,256.00 C841.40,289.24 843.29,298.74 844.04,296.00 C844.64,293.80 844.99,293.37 846.20,299.86 C848.38,313.45 850.75,328.32 852.06,336.50 C853.35,344.57 854.97,354.60 856.14,361.66 L 856.14 361.66 C856.50,363.87 856.80,365.69 857.02,367.00 C858.08,373.27 862.07,398.53 865.93,423.34 C865.63,421.42 865.33,419.47 865.02,417.50 C860.56,388.90 856.63,364.60 856.28,363.50 C855.70,361.66 855.60,361.70 854.99,364.00 C854.62,365.38 854.72,367.57 855.19,368.88 C855.66,370.19 855.81,372.04 855.51,372.98 C855.21,373.92 856.35,383.43 858.05,394.10 C858.71,398.25 859.59,403.82 860.53,409.88 C857.63,391.83 854.84,375.58 854.17,373.87 C852.83,370.44 847.91,368.59 845.33,370.55 C844.32,371.31 841.35,372.23 838.71,372.60 C833.19,373.37 832.00,374.88 832.00,381.11 C832.00,386.94 839.83,443.96 841.01,446.76 C841.83,448.69 842.53,448.96 845.74,448.54 C849.29,448.07 849.75,448.35 854.00,453.44 C856.47,456.41 859.26,459.13 860.20,459.47 C861.13,459.82 862.18,460.98 862.52,462.05 C862.91,463.28 864.03,464.00 865.57,464.00 C867.56,464.00 868.00,463.50 868.00,461.22 ZM 707.58 525.14 C707.29,524.66 705.73,520.72 704.13,516.39 C702.52,512.05 699.10,504.00 696.53,498.50 C694.14,493.39 690.30,485.00 685.49,474.41 L 685.47 474.38 C685.23,473.86 684.99,473.32 684.74,472.77 C681.50,465.61 677.38,456.50 671.96,444.49 L 671.95 444.47 C668.31,436.38 664.46,427.81 660.51,419.00 C658.46,414.42 655.88,408.77 653.27,403.14 L 653.27 403.14 C650.50,397.07 648.00,391.63 646.58,388.60 C644.02,383.16 642.08,378.25 642.27,377.69 C642.78,376.15 644.55,378.66 648.83,387.00 C652.57,394.31 652.79,394.52 657.09,395.18 C662.78,396.05 673.38,396.17 675.42,395.39 C677.35,394.65 677.49,393.73 674.40,386.45 C677.68,393.98 679.91,399.46 680.28,401.00 C681.03,404.12 678.88,407.28 676.61,406.40 C674.72,405.68 669.61,407.52 666.12,410.18 C661.10,414.00 658.08,411.52 653.98,400.22 C651.88,394.40 650.46,392.21 649.46,393.20 C649.11,393.56 652.89,402.15 675.15,451.47 C677.87,457.51 680.64,462.79 681.30,463.21 C681.96,463.63 682.58,463.98 682.68,463.98 C683.24,464.03 680.80,457.76 678.49,453.23 C677.01,450.34 675.57,446.22 675.28,444.07 C674.81,440.54 675.03,440.03 677.69,438.66 C679.29,437.83 681.15,435.97 681.80,434.54 C683.03,431.83 683.28,431.49 687.48,426.50 C689.97,423.55 690.03,423.53 691.55,425.50 C692.40,426.60 695.62,432.75 698.70,439.16 C702.36,446.79 704.74,450.65 705.58,450.33 C706.30,450.06 706.54,449.62 705.56,446.97 C708.61,454.64 714.49,465.91 715.15,465.25 C715.58,464.82 720.92,453.24 727.01,439.52 L 727.22 439.04 C724.77,444.78 723.04,449.37 723.42,449.75 C724.31,450.64 725.38,449.22 728.70,442.83 C730.32,439.71 732.06,437.46 732.57,437.83 C733.08,438.20 735.08,441.54 737.00,445.25 C738.92,448.96 740.72,452.00 741.00,452.00 C741.17,451.99 743.11,447.96 745.38,443.01 C745.07,443.72 744.75,444.44 744.42,445.17 C726.31,485.79 721.59,498.04 715.52,520.25 C714.06,525.57 713.73,526.00 711.03,526.00 C709.43,526.00 707.88,525.61 707.58,525.14 ZM 592.39 373.44 C592.23,375.03 592.09,376.56 591.95,378.00 C591.63,381.39 591.28,385.01 590.94,388.55 L 590.94 388.56 C590.21,396.06 589.28,405.30 587.72,420.71 L 587.46 423.28 C588.30,414.74 589.30,404.42 590.49,392.00 C591.84,377.98 593.14,364.45 593.40,361.95 C593.92,356.80 592.50,352.91 591.61,357.05 C591.09,359.48 589.72,370.03 587.93,385.50 C586.18,400.60 582.77,436.51 582.05,447.50 C581.65,453.55 581.23,457.60 581.12,456.50 C580.95,454.78 580.45,455.03 577.60,458.25 C575.67,460.44 573.37,462.00 572.09,462.00 C570.55,462.00 569.58,462.90 568.85,465.01 C568.24,466.74 566.88,468.24 565.62,468.56 C563.71,469.04 563.21,470.38 561.72,479.14 C557.97,501.12 549.87,512.39 534.94,516.41 C529.90,517.76 532.17,517.87 566.00,517.86 L 602.50 517.85 L 596.32 516.02 C588.30,513.65 584.52,511.35 581.52,507.02 C577.38,501.04 576.74,495.25 578.47,479.64 C579.31,472.03 580.04,465.29 580.10,464.65 C580.15,464.02 580.56,464.62 581.00,466.00 C581.77,468.40 581.80,468.37 581.90,465.33 C581.96,463.59 582.38,462.02 582.84,461.83 C583.27,461.66 583.88,457.84 585.21,445.46 C585.08,446.77 584.95,448.06 584.82,449.31 L 584.45 453.00 C582.69,470.32 581.69,481.62 581.41,489.21 C580.97,498.87 581.63,501.69 583.06,503.91 C583.22,504.20 583.39,504.46 583.58,504.72 C583.80,505.03 584.08,505.36 584.41,505.69 C586.59,508.11 589.95,510.15 593.77,511.47 C596.49,512.64 599.27,513.50 601.49,513.75 C605.10,514.16 606.00,514.64 606.00,516.19 C606.00,517.25 605.58,517.86 605.07,517.54 C604.56,517.23 603.86,517.42 603.51,517.98 C602.71,519.27 524.36,519.39 523.56,518.10 C522.89,517.01 525.23,516.03 528.83,515.90 L 531.50 515.80 L 529.00 515.09 C526.73,514.44 526.86,514.31 530.50,513.70 C532.70,513.33 535.17,513.02 536.00,513.03 C537.33,513.03 537.33,513.15 536.00,514.10 C534.85,514.91 535.17,515.01 537.36,514.53 C543.09,513.28 548.52,509.95 550.90,506.24 L 553.29 502.50 L 551.00 504.50 C550.92,504.57 550.84,504.64 550.76,504.71 C549.95,505.42 549.42,505.88 549.28,505.78 C549.05,505.62 549.82,504.00 552.00,499.62 C553.23,497.63 554.32,495.53 555.05,493.71 C556.21,491.70 557.00,490.75 557.00,491.47 C557.00,493.34 557.03,493.34 558.47,491.44 C559.28,490.37 559.94,487.92 559.95,486.00 C559.97,483.38 559.73,482.88 559.00,484.00 C558.47,484.83 558.02,485.25 558.02,484.94 C557.96,482.76 577.94,315.85 578.48,314.00 C578.72,313.17 578.64,316.33 578.29,321.00 C577.94,325.67 577.56,333.55 577.45,338.50 C577.33,343.45 576.04,357.62 574.56,370.00 C569.65,411.32 569.47,413.45 570.90,412.56 C571.39,412.26 572.05,412.68 572.36,413.51 C573.25,415.81 575.28,415.29 577.95,412.06 C579.29,410.44 580.68,409.30 581.04,409.53 C581.41,409.75 582.45,409.39 583.35,408.72 C584.48,407.88 585.43,404.37 586.40,397.50 C588.51,382.59 594.08,328.06 594.03,322.90 C593.99,319.17 590.77,316.60 587.06,317.34 C584.37,317.88 583.89,317.57 582.36,314.34 C580.88,311.23 580.81,309.98 581.84,305.00 C582.49,301.83 583.48,294.35 584.04,288.37 C584.59,282.39 585.45,275.02 585.95,272.00 L 586.12 270.97 C586.28,270.00 586.43,269.10 586.56,268.25 C585.72,275.91 585.87,278.75 587.00,277.00 C587.82,275.72 587.97,275.72 587.98,276.95 C588.00,278.03 588.29,278.11 589.13,277.27 C589.98,276.42 590.90,276.54 592.73,277.74 C594.73,279.05 595.57,279.13 597.14,278.15 C599.29,276.80 601.00,277.39 601.00,279.48 C601.00,280.23 602.16,282.22 603.57,283.90 C604.99,285.58 605.86,287.42 605.51,287.98 C605.17,288.54 605.36,289.00 605.94,289.00 C606.52,289.00 607.00,289.71 607.00,290.58 C607.00,291.44 608.30,293.36 609.89,294.83 C614.03,298.66 615.13,299.42 618.53,300.82 C622.65,302.51 631.09,310.78 635.84,317.77 C638.00,320.94 641.00,324.20 642.52,325.01 C645.43,326.57 652.00,334.48 652.00,336.43 C652.00,338.53 655.73,344.93 656.53,344.21 C656.97,343.82 657.00,344.05 656.62,344.72 C656.23,345.40 658.90,352.37 662.56,360.22 C663.52,362.29 664.47,364.34 665.40,366.37 C661.35,357.91 659.88,356.51 657.50,356.26 C652.92,355.77 652.00,355.24 652.00,353.08 C652.00,351.99 650.84,350.28 649.43,349.30 C648.02,348.31 643.85,345.14 640.18,342.26 C636.51,339.38 632.73,337.02 631.80,337.01 C627.92,336.98 625.08,334.62 622.94,329.62 C616.13,313.76 609.85,301.62 609.10,302.84 C608.45,303.89 608.15,303.83 607.65,302.53 C607.24,301.46 607.41,301.14 608.16,301.60 C609.97,302.72 608.32,297.54 603.71,287.61 C599.88,279.38 599.53,278.93 598.84,281.50 C597.73,285.67 596.86,304.01 597.92,301.00 C599.66,296.06 599.04,310.12 596.49,333.50 C595.11,346.15 593.30,363.70 592.48,372.50 ZM 879.43 165.11 C879.73,164.63 881.56,163.93 883.49,163.57 C885.42,163.21 887.00,162.58 887.00,162.18 C887.00,160.37 883.81,157.17 881.42,156.57 C878.60,155.86 868.00,148.28 868.00,146.97 C868.00,145.26 849.00,133.45 837.16,127.79 C837.53,127.96 837.89,128.13 838.25,128.30 C849.52,133.68 852.00,134.55 852.00,133.11 C852.00,131.87 848.88,129.87 841.25,126.23 C833.43,122.50 826.28,119.33 819.39,116.58 C835.31,122.74 850.53,130.23 864.38,138.78 C879.16,147.91 897.20,162.51 912.85,177.55 C915.41,180.38 916.77,182.44 916.43,183.32 C916.01,184.42 917.62,186.76 921.54,190.72 C924.68,193.90 926.95,195.60 926.57,194.50 C926.07,193.05 926.85,193.44 929.44,195.95 C931.40,197.84 933.00,199.61 933.00,199.87 C933.00,200.13 931.88,199.29 930.50,198.00 C925.37,193.18 926.98,197.19 933.20,204.71 C940.45,213.47 955.08,234.53 959.97,243.25 C964.77,251.82 964.78,250.20 959.98,241.25 C955.91,233.65 955.89,233.57 958.99,237.00 C962.59,240.99 971.59,258.92 978.44,274.90 C979.42,277.27 980.37,279.66 981.29,282.05 C981.20,282.02 981.08,282.00 980.95,282.00 C980.31,282.00 980.00,282.56 980.26,283.25 C981.94,287.72 982.14,289.21 981.02,288.84 C980.36,288.62 978.73,285.30 977.40,281.47 C974.95,274.44 963.10,249.82 956.58,238.22 C949.61,225.82 931.00,201.42 931.00,204.68 C931.00,205.29 928.86,206.07 926.25,206.40 C923.64,206.72 920.75,207.09 919.82,207.21 C919.30,207.28 918.91,207.31 918.75,207.52 C918.33,208.11 919.81,210.09 925.89,218.20 L 926.49 219.00 C928.78,222.06 931.04,225.22 933.26,228.45 C923.65,214.72 913.93,203.30 912.08,204.45 C911.47,204.82 911.24,204.53 911.53,203.77 C912.15,202.18 902.23,191.75 900.62,192.31 C900.00,192.52 896.35,189.91 892.50,186.51 C888.83,183.27 883.24,178.75 877.49,174.30 C874.72,172.11 871.91,169.98 869.05,167.91 L 869.05 167.91 C865.13,165.01 861.57,162.49 859.00,160.82 C848.73,154.15 837.76,148.15 826.38,142.91 C825.43,142.47 824.48,142.04 823.53,141.61 C802.99,132.36 782.81,126.26 758.26,121.87 C755.62,121.40 752.22,120.97 748.33,120.61 C743.91,119.97 739.65,119.33 737.38,118.97 C734.02,118.44 724.12,117.94 715.38,117.87 C705.74,117.79 700.88,117.45 703.00,117.00 C710.73,115.37 692.60,116.03 679.81,117.74 C690.77,116.21 709.08,114.43 718.16,114.03 C718.91,114.00 718.67,112.35 717.52,109.68 C717.06,108.62 717.20,107.40 717.87,106.73 C718.49,106.11 719.00,104.84 719.00,103.91 C719.00,101.46 721.53,100.78 730.04,100.95 C746.13,101.26 764.32,103.96 782.70,108.54 C770.62,105.71 755.34,103.00 750.60,103.00 L 747.71 103.00 L 750.35 105.45 C753.31,108.19 753.69,109.80 751.58,110.61 C749.52,111.40 748.81,113.95 750.25,115.36 C750.94,116.03 757.58,117.85 765.00,119.40 C795.53,125.79 819.11,134.38 845.22,148.62 C851.84,152.23 859.42,155.83 862.07,156.61 C864.72,157.40 867.70,159.05 868.70,160.27 C872.35,164.79 878.05,167.35 879.43,165.11 ZM 715.05 509.50 C716.84,502.90 719.36,495.09 720.64,492.15 C723.74,485.05 724.82,480.79 725.48,473.00 C725.78,469.42 726.50,464.14 727.08,461.26 C728.21,455.66 727.57,451.64 725.67,452.28 C725.02,452.49 722.47,457.32 720.00,463.00 C717.53,468.69 715.10,473.29 714.62,473.23 C713.85,473.13 708.69,462.15 700.18,442.50 C698.75,439.20 696.91,435.69 696.10,434.71 C694.69,433.00 694.55,433.03 693.34,435.21 C692.64,436.47 692.05,438.48 692.04,439.67 C692.02,440.87 690.89,443.16 689.54,444.77 C687.88,446.75 687.23,448.52 687.53,450.22 C687.82,451.79 687.24,453.70 686.00,455.28 C682.27,460.01 682.68,461.62 693.68,485.50 C702.17,503.94 701.42,502.24 705.58,512.50 C707.58,517.45 709.45,521.88 709.73,522.34 C710.72,524.00 711.84,521.30 715.05,509.50 ZM 963.64 295.30 C960.87,286.94 958.77,279.11 958.63,276.50 C958.49,273.67 957.65,270.63 955.40,265.81 C958.94,272.90 962.02,279.80 964.47,286.25 C965.46,288.86 966.83,291.00 967.51,291.00 C968.19,291.00 969.02,292.35 969.35,294.00 C969.96,297.06 972.00,298.22 972.00,295.50 C972.00,294.67 971.55,294.00 971.00,294.00 C969.38,294.00 969.86,289.99 971.56,289.34 C972.48,288.99 974.22,289.77 975.81,291.25 C977.29,292.62 979.13,293.94 979.89,294.17 C981.98,294.80 986.62,307.82 989.44,320.92 C995.20,347.67 997.12,366.08 997.05,393.75 C997.02,404.03 997.40,412.00 997.91,412.00 C998.19,412.00 998.44,411.46 998.66,410.46 C998.34,414.86 997.91,419.05 997.35,423.18 C994.65,439.80 990.33,457.46 985.53,472.33 L 985.53 472.33 C983.37,478.95 981.01,485.25 978.19,491.88 L 978.19 491.88 C976.78,495.03 975.37,497.81 973.99,500.12 C972.24,503.08 971.11,504.60 971.49,503.50 C971.86,502.40 972.33,500.38 972.51,499.00 C972.70,497.62 974.50,492.23 976.51,487.00 C986.68,460.51 992.36,436.26 995.11,407.52 C996.24,395.68 995.89,359.99 994.61,356.98 C994.15,355.89 992.62,355.50 989.25,355.61 C984.32,355.76 982.10,354.27 982.03,350.75 C982.01,349.79 981.50,349.00 980.89,349.00 C980.18,349.00 979.98,350.18 980.35,352.25 C980.66,354.00 981.21,363.69 981.58,373.93 C981.30,368.18 980.75,363.42 979.90,360.32 C978.86,356.49 978.58,356.55 978.50,368.52 C978.29,364.94 977.98,361.43 977.58,358.00 C977.45,356.91 977.32,355.83 977.18,354.76 C976.38,347.66 975.28,340.49 973.90,333.37 C971.34,319.73 968.04,307.43 963.64,295.30 ZM 808.60 430.60 C809.00,429.55 808.13,427.14 806.41,424.00 C807.36,425.70 808.21,427.38 808.99,429.07 C810.36,432.06 811.72,434.73 812.01,435.00 C812.30,435.27 813.08,436.74 813.75,438.25 C814.41,439.76 815.53,440.99 816.23,440.98 C816.40,440.98 816.53,440.97 816.64,440.94 C817.40,443.56 818.06,446.24 818.64,449.01 C819.13,452.96 819.42,458.40 819.53,465.50 C819.68,475.69 819.51,479.32 819.06,475.50 C818.35,469.65 818.33,469.62 818.17,474.07 C817.99,478.92 816.85,486.22 815.33,493.05 C816.44,487.44 817.00,481.64 817.00,475.68 L 817.00 465.50 L 812.46 462.63 C809.97,461.06 806.71,458.15 805.21,456.18 C801.94,451.85 795.81,446.17 791.71,443.68 C790.06,442.67 788.05,441.19 787.24,440.38 C784.80,437.94 784.87,439.34 787.54,445.90 C790.70,453.68 792.30,460.63 792.72,469.34 C791.99,455.57 788.34,445.24 780.58,433.59 C775.11,425.38 769.03,418.69 770.33,422.31 C770.69,423.30 767.50,420.96 763.24,417.10 C759.21,413.45 751.04,406.58 744.58,401.40 C743.28,400.31 741.97,399.23 740.68,398.17 C745.38,401.85 747.12,402.98 746.13,401.73 C745.37,400.78 745.12,400.00 745.56,400.00 C746.01,400.00 745.05,398.62 743.44,396.93 C740.46,393.82 731.00,387.51 731.00,388.63 C731.00,388.97 730.37,388.72 729.60,388.09 C728.03,386.78 728.63,382.87 730.37,383.14 C730.99,383.24 732.17,383.05 733.00,382.72 C733.83,382.39 738.22,380.92 742.76,379.45 C747.30,377.98 751.27,376.38 751.57,375.89 C752.65,374.14 757.20,375.05 760.82,377.73 C764.95,380.80 768.80,383.79 772.40,386.72 C770.27,385.05 768.51,383.79 767.47,383.24 C766.13,382.53 764.86,382.50 763.71,383.14 C762.75,383.68 758.03,384.31 753.23,384.55 C742.36,385.07 731.66,386.01 731.21,386.46 C731.02,386.65 732.36,387.96 734.18,389.38 C736.01,390.80 740.65,394.44 744.50,397.48 C748.35,400.51 753.38,403.88 755.67,404.97 C757.97,406.05 760.09,407.34 760.40,407.84 C760.70,408.33 764.11,409.75 767.98,410.99 C771.84,412.23 775.00,413.64 775.00,414.13 C775.00,414.61 775.68,415.00 776.51,415.00 C777.34,415.00 778.99,416.12 780.19,417.50 C781.38,418.88 782.84,420.00 783.43,420.01 C784.02,420.02 786.48,421.59 788.89,423.51 C791.31,425.43 793.84,427.00 794.52,427.00 C795.20,427.00 796.31,427.67 796.99,428.49 C797.77,429.43 799.11,429.76 800.58,429.39 C802.07,429.02 803.53,429.39 804.54,430.40 C806.51,432.37 807.89,432.44 808.60,430.60 ZM 696.96 223.97 C701.10,222.26 705.47,220.94 710.06,219.99 C708.28,220.66 709.47,220.73 715.00,220.34 C718.91,220.06 720.87,219.89 722.83,219.85 C725.27,219.80 727.71,219.95 733.89,220.31 C734.83,220.37 735.87,220.43 737.00,220.49 C743.88,220.89 749.83,221.42 750.24,221.66 C750.64,221.91 753.12,222.36 755.74,222.67 C758.36,222.98 760.69,223.41 760.92,223.62 C761.15,223.83 762.50,223.96 763.92,223.92 C766.51,223.83 761.02,222.39 750.74,220.41 C755.59,221.15 760.54,221.95 763.50,222.47 C767.90,223.25 773.86,223.92 776.75,223.95 L 782.00 224.00 L 781.98 243.25 C781.97,256.05 781.64,262.00 781.00,261.00 C780.22,259.79 780.03,259.93 780.02,261.75 C780.00,264.07 778.59,264.77 777.49,262.99 C776.38,261.18 778.05,257.81 779.74,258.46 C781.13,258.99 781.23,257.75 780.66,247.71 C780.30,241.47 779.73,234.32 779.39,231.82 L 778.77 227.28 L 770.63 226.66 C766.16,226.32 758.30,225.16 753.17,224.08 C739.55,221.22 728.02,220.36 726.91,222.11 C724.59,225.77 727.37,231.00 731.63,231.00 C732.71,231.00 734.03,231.43 734.56,231.96 C735.08,232.48 738.33,233.15 741.77,233.43 C751.46,234.24 762.85,240.48 764.49,245.89 C765.20,248.19 765.09,248.17 761.36,245.18 C758.90,243.22 756.11,241.52 753.07,240.09 C752.73,239.92 752.40,239.76 752.08,239.62 C743.11,235.59 733.06,234.17 723.42,235.14 C721.24,235.31 719.05,235.60 716.89,236.00 C713.82,236.57 710.02,237.92 706.20,239.69 C705.22,240.13 704.25,240.60 703.30,241.11 C698.79,243.45 694.49,246.25 691.63,248.91 C688.00,252.29 687.04,252.84 687.99,251.00 L 689.29 248.50 L 687.04 250.50 C686.40,251.07 685.74,251.79 685.07,252.64 C687.27,249.49 689.83,246.51 692.76,243.78 C697.48,239.35 697.75,238.83 697.03,235.64 C695.48,228.76 694.21,228.51 685.93,233.54 C673.20,241.28 660.83,259.53 657.50,275.50 C656.11,282.12 655.75,292.96 656.39,301.54 C656.10,298.29 655.95,294.67 655.92,290.50 C655.84,282.42 655.50,278.45 655.00,280.00 C653.61,284.35 653.91,279.17 655.42,272.86 C656.74,267.33 662.50,254.09 661.44,259.00 C660.94,261.34 660.98,261.37 662.13,259.50 C662.80,258.40 665.07,255.16 667.17,252.29 C671.35,246.60 671.79,245.48 669.48,246.37 C668.43,246.77 668.17,246.51 668.60,245.69 C670.25,243.79 672.04,241.86 673.95,239.96 C676.94,236.97 679.27,234.76 681.39,232.98 C684.71,230.40 688.25,228.15 692.00,226.24 L 692.03 226.23 C693.70,225.41 695.33,224.66 696.96,223.97 ZM 621.35 474.30 C621.68,469.45 622.43,464.61 623.61,459.73 C625.70,451.87 629.09,442.77 632.69,435.63 L 633.50 434.02 L 631.56 438.12 C627.34,447.03 622.30,462.63 623.30,463.64 C623.56,463.90 624.33,461.81 625.00,459.00 C625.67,456.19 626.41,454.08 626.63,454.30 C626.86,454.53 626.37,457.59 625.54,461.11 C623.18,471.11 623.76,493.70 626.58,501.92 C626.92,502.91 627.78,502.31 629.37,499.99 C631.54,496.82 631.65,495.81 631.47,481.57 C631.37,473.28 631.46,469.54 631.68,473.25 C631.91,476.96 632.52,480.00 633.04,480.00 C634.34,480.00 634.25,472.24 632.88,466.31 C632.02,462.58 632.06,460.07 633.06,455.48 C633.78,452.19 634.54,450.29 634.75,451.25 C635.45,454.36 636.60,453.12 638.44,447.25 C639.12,445.09 640.22,442.07 641.26,439.43 C639.95,442.80 638.38,447.32 637.30,450.86 C636.00,455.17 635.32,457.95 634.98,461.96 C634.88,460.84 634.48,460.00 634.00,460.00 C633.45,460.00 633.00,461.12 633.00,462.50 C633.00,463.88 633.45,465.00 634.00,465.00 C634.35,465.00 634.66,464.54 634.84,463.85 C634.68,466.58 634.63,469.91 634.60,474.50 C634.51,491.82 635.72,497.61 642.16,510.73 C647.55,521.73 656.34,531.14 668.20,538.63 C673.23,541.80 678.05,544.51 678.92,544.64 C679.79,544.77 684.33,546.13 689.00,547.66 C696.89,550.23 698.69,550.43 714.00,550.44 C716.21,550.44 718.13,550.44 719.83,550.43 C717.94,550.45 715.77,550.46 713.24,550.46 C702.35,550.49 696.81,550.82 698.24,551.37 C699.48,551.85 701.40,552.62 702.50,553.08 C703.27,553.40 704.51,553.79 705.65,554.08 C695.77,553.22 685.85,550.84 676.84,547.00 C669.09,543.70 657.59,536.45 654.46,532.89 C653.38,531.66 653.06,530.99 653.75,531.39 C656.19,532.81 654.96,531.20 652.25,529.42 C649.36,527.52 645.27,527.33 643.59,529.01 C642.07,530.53 639.48,530.19 637.74,528.25 C636.88,527.29 633.87,522.00 631.06,516.50 C628.24,511.00 626.20,507.62 626.52,509.00 C626.93,510.79 626.83,511.07 626.16,510.00 C625.65,509.17 624.95,506.92 624.62,505.00 C624.17,502.43 624.25,502.03 624.93,503.50 C626.09,505.99 626.13,503.54 625.00,500.00 C624.32,497.87 624.17,497.79 624.01,499.50 C623.60,503.97 621.93,495.16 621.33,485.35 C621.22,481.52 621.22,477.67 621.35,474.30 ZM 691.66 566.98 C689.56,566.06 696.73,565.58 713.28,565.51 C731.94,565.43 735.50,565.15 742.77,563.18 C752.55,560.53 756.13,559.02 755.41,557.85 C755.12,557.38 753.78,557.00 752.44,557.00 C749.99,557.00 749.60,555.98 749.66,549.66 C749.66,549.56 749.66,549.47 749.67,549.38 C749.68,548.98 749.69,548.68 749.54,548.49 C749.10,547.90 747.19,548.40 739.33,550.62 C745.87,548.51 753.04,545.08 763.50,539.12 C767.51,536.84 769.00,536.46 771.00,537.21 C772.38,537.72 773.62,538.09 773.77,538.03 C773.92,537.97 774.78,538.33 775.67,538.84 C776.88,539.51 777.14,540.56 776.67,542.91 C775.78,547.34 778.10,547.91 782.76,544.41 C792.42,537.15 800.20,528.36 805.88,518.46 C802.83,523.83 799.23,528.81 795.22,533.16 C792.07,536.58 790.29,539.08 791.25,538.72 C797.01,536.56 787.44,545.79 776.54,552.91 C769.60,557.44 761.78,561.13 753.45,563.88 C740.88,567.92 725.32,570.00 711.77,569.59 C709.10,569.48 706.43,569.26 703.78,568.95 C701.73,568.72 699.94,568.49 698.40,568.28 C696.11,567.91 693.86,567.47 691.66,566.98 ZM 705.17 651.58 C721.72,651.89 745.44,650.84 755.00,649.06 C771.66,645.96 781.61,643.46 794.69,639.08 C801.40,636.84 807.98,635.00 809.32,635.00 C813.47,635.00 819.06,637.95 820.82,641.06 C822.27,643.61 822.92,643.94 825.50,643.41 C827.23,643.06 830.49,641.73 834.56,639.80 C819.79,646.93 804.88,652.56 791.00,656.08 L 790.82 656.12 C784.78,657.65 782.95,658.11 781.35,657.71 C780.64,657.53 779.97,657.18 779.00,656.68 C777.22,655.75 776.55,654.64 776.67,652.81 C776.81,650.82 776.07,649.82 773.49,648.42 C770.23,646.67 769.75,646.68 756.42,648.87 C739.86,651.58 722.62,652.47 705.17,651.58 ZM 903.35 549.72 C916.90,565.78 934.84,578.61 952.61,583.89 C960.49,586.23 965.56,586.73 963.00,584.90 C961.88,584.10 962.51,583.98 965.50,584.41 C967.70,584.72 970.05,584.98 970.72,584.99 C971.39,585.00 971.68,585.67 971.36,586.50 C970.89,587.73 971.91,588.01 977.14,588.03 C982.48,588.06 983.18,588.25 981.50,589.23 C978.42,591.04 951.06,591.23 941.95,589.51 C937.84,588.73 931.85,586.93 926.17,584.89 C930.23,586.19 932.30,586.30 931.54,585.07 C931.23,584.56 931.42,583.86 931.98,583.51 C933.70,582.45 933.12,581.05 930.21,579.24 C928.19,577.97 927.48,576.79 927.64,574.92 C927.81,572.82 926.75,571.54 921.81,567.94 C915.78,563.55 909.26,557.05 903.35,549.72 ZM 555.93 151.71 C556.40,151.35 556.90,150.98 557.40,150.61 C564.97,145.01 566.98,143.00 565.00,143.00 C562.72,143.00 565.23,141.08 575.24,135.16 C576.28,134.54 577.37,133.92 578.51,133.28 C595.15,123.93 621.13,112.59 630.71,110.38 C631.79,110.13 632.66,110.00 633.30,110.00 C634.56,110.00 636.03,109.58 636.55,109.06 C637.07,108.54 640.88,107.39 645.00,106.50 C649.12,105.60 656.55,104.00 661.50,102.94 C662.52,102.72 663.56,102.51 664.61,102.30 C654.92,104.26 642.90,107.24 643.36,107.69 C643.63,107.96 648.17,107.18 653.46,105.96 C658.74,104.74 663.29,103.96 663.56,104.23 C663.83,104.50 661.23,105.30 657.77,106.00 C639.49,109.76 609.80,120.48 591.50,129.93 C579.67,136.05 564.24,145.64 555.93,151.71 ZM 639.15 305.42 C639.78,306.81 640.77,307.64 641.35,307.29 C641.60,307.13 641.76,306.98 641.82,306.85 C643.37,310.16 645.59,314.96 648.35,320.95 C646.47,317.11 645.03,315.10 644.21,315.25 C644.15,315.26 644.09,315.27 644.04,315.28 C643.84,315.32 643.66,315.35 643.49,315.34 C642.32,315.25 641.30,313.02 632.89,295.50 C621.73,272.21 618.00,263.96 618.00,262.53 C618.00,260.37 604.44,234.49 598.80,225.86 C595.79,221.26 590.55,214.20 587.16,210.16 C583.77,206.12 581.00,202.62 581.00,202.37 C581.00,202.13 581.94,202.43 583.09,203.05 C585.46,204.32 586.06,204.17 584.94,202.72 C588.23,206.11 591.34,209.69 594.22,213.42 C594.69,214.03 595.13,214.60 595.55,215.15 L 595.55 215.15 C598.16,218.63 600.68,222.33 603.14,226.27 C604.34,228.45 605.55,230.96 607.21,234.50 C609.37,239.08 609.56,239.91 608.02,238.00 L 606.01 235.50 L 607.05 238.50 C608.24,241.92 623.36,272.43 622.54,269.75 C622.24,268.79 621.72,267.21 621.38,266.25 C621.03,265.29 624.67,272.38 629.47,282.00 C634.26,291.62 638.77,300.62 639.49,302.00 C639.69,302.39 640.05,303.13 640.56,304.18 C640.44,304.07 640.25,304.00 640.00,304.00 C639.39,304.00 639.16,303.55 639.50,303.00 C639.84,302.45 639.64,302.00 639.06,302.00 C637.73,302.00 637.74,302.32 639.15,305.42 ZM 709.99 370.33 C717.75,376.20 718.55,376.70 717.49,374.98 C717.14,374.42 716.67,372.74 716.43,371.23 C716.02,368.58 715.01,364.81 712.50,356.50 C711.84,354.30 710.44,348.72 709.40,344.11 L 707.50 335.72 L 699.20 328.77 C695.95,326.05 692.23,322.54 689.57,319.76 C694.60,324.98 703.68,332.75 713.07,339.79 C717.58,343.17 718.69,344.59 718.93,347.23 C719.22,350.42 719.70,378.00 719.47,378.00 C719.41,378.00 713.07,372.95 704.79,366.33 C706.62,367.75 708.37,369.10 709.99,370.33 ZM 750.00 364.51 C745.70,361.28 742.42,359.00 741.99,359.00 C741.41,359.00 740.68,358.33 740.36,357.50 C740.05,356.67 739.18,356.00 738.44,356.00 C737.61,356.00 738.03,356.94 739.55,358.45 C742.68,361.59 742.67,364.69 739.50,367.18 C738.12,368.26 737.00,369.68 737.00,370.34 C737.00,370.99 735.78,372.42 734.30,373.51 C728.37,377.87 724.92,381.36 725.37,382.53 C725.70,383.38 725.15,383.60 723.68,383.22 C722.48,382.91 725.33,385.78 730.00,389.59 C730.81,390.25 731.59,390.88 732.34,391.49 C731.31,390.69 730.33,389.94 729.41,389.25 C720.95,382.38 720.21,381.42 721.25,381.21 C722.90,380.87 734.47,363.58 735.27,360.26 C735.69,358.51 734.78,357.08 731.10,353.76 C725.68,348.87 723.54,345.15 727.27,347.14 C728.15,347.60 733.31,351.50 740.18,356.82 C743.71,359.58 746.97,362.14 750.00,364.51 ZM 856.35 606.77 L 856.35 606.77 C860.91,603.95 864.68,601.53 865.93,600.59 C869.60,597.84 871.18,597.87 868.89,600.64 C867.61,602.19 867.70,602.22 870.00,601.02 C871.13,600.43 874.56,598.00 878.25,595.21 L 876.58 596.49 C864.03,606.12 841.35,620.40 830.68,625.40 C826.45,627.38 824.51,627.84 823.58,627.07 C822.67,626.31 820.67,626.68 816.41,628.41 C811.26,630.50 806.09,632.43 800.90,634.19 C817.13,628.45 832.94,620.84 849.36,611.06 C851.73,609.65 854.12,608.18 856.35,606.77 ZM 553.66 179.07 C553.05,178.93 553.01,179.25 553.73,180.15 C554.75,181.40 554.66,181.67 553.23,181.70 C552.28,181.71 551.05,181.37 550.49,180.94 C548.55,179.43 540.47,177.03 537.25,177.01 C535.46,177.01 534.00,176.52 534.00,175.94 C534.00,175.36 533.55,175.16 533.00,175.50 C532.45,175.84 532.00,175.61 532.00,175.00 C532.00,174.39 531.55,174.16 531.00,174.50 C530.45,174.84 530.00,174.69 530.00,174.18 C530.00,171.43 496.66,168.41 492.43,170.78 C490.82,171.68 491.11,171.91 494.53,172.43 C496.29,172.70 498.01,173.00 499.70,173.33 C497.03,172.88 494.29,172.56 491.21,172.32 C483.52,171.71 482.91,171.52 486.00,170.75 C487.92,170.27 496.54,169.79 505.15,169.69 C513.76,169.58 520.29,169.14 519.65,168.69 C517.46,167.15 529.54,169.20 536.79,171.60 C538.11,172.04 539.42,172.50 540.73,173.00 C544.74,174.59 549.23,176.70 553.66,179.07 ZM 486.73 225.40 C487.93,226.60 489.70,225.95 492.03,223.47 C493.33,222.08 495.01,221.17 495.75,221.46 C496.50,221.74 496.85,221.57 496.55,221.07 C496.24,220.58 496.55,219.93 497.24,219.64 C498.15,219.27 498.00,218.80 496.73,218.00 C495.75,217.38 495.22,216.46 495.53,215.95 C495.85,215.43 495.72,214.32 495.25,213.48 C494.55,212.22 493.79,212.68 491.19,215.92 C487.75,220.20 485.76,224.43 486.73,225.40 ZM 768.50 530.02 C771.08,527.51 773.44,524.81 775.55,521.93 C777.55,519.21 779.54,517.21 779.98,517.49 C780.74,517.96 783.58,514.55 785.66,510.95 C783.17,516.28 780.45,521.21 778.88,522.89 C777.78,524.08 776.22,526.61 775.43,528.52 C774.49,530.76 773.30,532.00 772.08,532.00 C769.59,532.00 769.97,529.76 773.06,526.29 C774.38,524.80 772.34,526.48 768.50,530.02 ZM 834.97 426.25 C834.99,426.66 835.29,427.00 835.65,427.00 C836.90,427.00 835.11,404.50 833.59,400.98 L 832.08 397.50 L 832.07 401.00 C832.07,402.92 832.71,409.23 833.50,415.00 C834.29,420.77 834.95,425.84 834.97,426.25 ZM 495.20 551.11 C496.46,552.54 497.72,553.52 498.00,553.28 C498.27,553.03 497.04,551.53 495.25,549.93 C493.46,548.33 492.00,546.50 492.00,545.85 C492.00,545.20 491.70,544.97 491.32,545.34 C490.95,545.71 489.53,545.00 488.16,543.76 C485.48,541.32 485.84,542.15 490.28,548.75 C493.48,553.50 494.43,554.09 493.52,550.75 C492.93,548.61 493.01,548.63 495.20,551.11 ZM 969.33 451.99 L 969.33 451.98 C970.23,448.76 971.06,445.53 971.83,442.28 C970.01,450.11 967.93,457.62 965.49,465.10 C963.60,470.94 961.81,476.56 961.51,477.60 C961.21,478.65 961.67,478.00 962.52,476.17 C963.33,474.43 964.74,472.20 965.74,471.06 L 968.24 466.22 C967.33,468.57 966.52,470.21 965.89,470.89 C965.84,470.94 965.79,471.00 965.74,471.06 L 952.04 497.50 C954.45,492.44 956.69,487.42 958.76,482.43 L 958.76 482.42 C960.64,478.01 962.29,473.91 963.45,470.67 C965.63,464.62 967.59,458.37 969.33,451.99 ZM 780.05 516.25 C780.11,515.21 784.90,506.34 784.95,507.17 C785.03,508.28 781.11,517.00 780.54,517.00 C780.24,517.00 780.02,516.66 780.05,516.25 ZM 931.00 578.50 C932.67,580.51 934.09,580.41 933.30,578.34 C932.87,577.22 933.04,576.91 933.83,577.39 C934.47,577.79 935.00,577.88 935.00,577.59 C935.00,577.31 934.05,576.56 932.88,575.94 C931.39,575.14 930.96,575.13 931.44,575.90 C931.81,576.51 931.59,577.00 930.94,577.00 C930.06,577.00 930.07,577.38 931.00,578.50 ZM 905.02 198.52 C902.60,196.06 900.84,193.83 901.10,193.57 C901.36,193.31 903.50,195.32 905.84,198.05 C911.15,204.21 910.80,204.41 905.02,198.52 ZM 642.12 311.92 C642.71,313.61 643.65,314.72 644.20,314.37 C644.76,314.03 644.83,313.47 644.36,313.12 C643.89,312.78 643.50,311.86 643.50,311.08 C643.50,310.30 642.95,309.48 642.28,309.26 C641.34,308.95 641.30,309.56 642.12,311.92 ZM 808.08 286.86 C808.13,288.41 808.39,288.88 808.71,288.00 C809.02,287.17 809.67,285.72 810.16,284.77 C810.84,283.44 810.70,283.18 809.52,283.63 C808.66,283.96 808.03,285.35 808.08,286.86 ZM 738.78 218.97 C731.04,218.54 721.42,218.57 715.42,219.07 C718.26,218.68 721.17,218.43 724.15,218.31 C728.57,218.24 733.38,218.46 738.78,218.97 ZM 739.23 414.75 C738.32,415.32 734.81,422.27 731.32,429.83 C735.34,420.84 738.25,414.42 738.37,414.30 C738.42,414.25 738.73,414.42 739.23,414.75 ZM 624.62 274.34 C623.77,272.78 623.06,271.82 623.04,272.20 C622.97,273.39 625.30,278.03 625.74,277.59 C625.97,277.36 625.46,275.90 624.62,274.34 ZM 473.10 480.74 C473.98,482.94 474.86,485.04 475.74,487.00 C476.34,488.33 477.05,490.03 477.75,491.77 C477.41,491.29 477.09,491.00 476.84,491.00 C476.31,491.00 476.16,490.55 476.50,490.00 C476.84,489.45 476.72,489.00 476.23,489.00 C475.73,489.00 475.33,488.44 475.32,487.75 C475.32,487.27 474.41,484.45 473.10,480.74 ZM 915.00 181.50 C914.32,180.68 913.34,180.00 912.84,180.00 C911.69,180.00 914.18,182.91 915.37,182.96 C915.85,182.98 915.68,182.32 915.00,181.50 ZM 956.60 276.40 C956.24,275.47 956.18,274.49 956.45,274.21 C956.73,273.94 957.24,274.47 957.60,275.40 C957.96,276.33 958.02,277.31 957.75,277.59 C957.47,277.86 956.96,277.33 956.60,276.40 ZM 652.48 329.95 C659.12,344.47 667.47,362.81 675.60,380.76 C684.75,400.97 694.93,423.35 698.23,430.50 C699.00,432.17 699.76,433.83 700.48,435.42 C699.78,433.88 698.99,432.18 698.13,430.30 C695.38,424.36 684.05,399.48 672.93,375.00 C664.19,355.75 655.72,337.10 651.55,327.93 C651.86,328.60 652.16,329.27 652.48,329.95 ZM 974.55 429.24 C975.68,422.99 976.59,416.66 977.27,410.22 C977.63,406.96 977.94,403.70 978.18,400.46 C977.88,407.64 977.31,412.68 976.23,419.50 C975.70,422.83 975.14,426.07 974.55,429.24 ZM 475.03 275.50 C475.03,274.95 475.47,273.83 476.00,273.00 C476.53,272.17 476.97,271.95 476.97,272.50 C476.97,273.05 476.53,274.17 476.00,275.00 C475.47,275.83 475.03,276.05 475.03,275.50 ZM 871.45 618.63 C881.42,611.62 891.34,604.04 896.88,599.19 C889.13,605.97 880.54,612.51 871.45,618.63 ZM 587.64 259.47 C587.68,258.15 587.61,257.00 587.41,255.86 C587.08,253.99 586.39,252.17 585.27,249.81 L 588.14 255.50 ZM 981.80 384.34 C981.85,398.03 980.95,410.82 978.95,423.53 C980.78,411.50 981.76,396.86 981.80,384.34 ZM 763.02 644.15 C750.44,646.50 737.83,647.91 725.26,648.36 C727.30,648.27 729.34,648.16 731.38,648.01 C742.46,647.22 752.94,645.96 763.02,644.15 ZM 752.69 426.34 C752.74,425.74 750.01,423.07 746.82,420.35 C750.07,422.87 753.00,425.27 753.00,425.54 C753.00,425.58 752.89,425.86 752.69,426.34 ZM 822.53 627.19 C822.83,627.50 822.28,628.06 821.29,628.44 C819.87,628.98 819.75,628.86 820.73,627.88 C821.41,627.19 822.22,626.89 822.53,627.19 ZM 786.67 394.34 C788.91,396.44 791.04,398.57 793.05,400.72 C788.64,396.17 783.12,391.17 775.70,384.97 C780.64,389.02 784.02,391.91 786.67,394.34 ZM 734.35 552.00 C729.21,553.31 723.74,554.09 718.13,554.35 C723.60,553.91 729.77,553.06 734.35,552.00 ZM 663.64 325.37 C666.34,330.28 669.71,335.06 673.59,339.43 C669.18,334.70 666.40,330.57 663.64,325.37 ZM 816.40 440.15 C815.88,439.66 815.37,438.29 815.22,437.00 C815.18,436.65 815.10,436.24 814.98,435.77 C815.48,437.21 815.96,438.67 816.40,440.15 ZM 640.68 304.45 C640.96,305.02 641.27,305.68 641.61,306.42 C641.51,306.35 641.37,306.29 641.19,306.23 C640.53,306.01 640.24,305.42 640.55,304.91 C640.66,304.75 640.70,304.59 640.68,304.45 ZM 789.79 500.90 C791.00,496.91 791.78,492.77 792.26,487.79 C791.82,492.89 791.15,496.72 790.19,499.72 C790.06,500.10 789.93,500.50 789.79,500.90 ZM 982.62 285.56 C982.83,286.14 983.04,286.71 983.25,287.29 C983.10,287.10 982.98,287.00 982.87,287.00 C982.44,287.00 982.33,286.36 982.62,285.56 ZM 562.90 163.87 C563.70,163.46 567.86,160.75 572.74,157.47 L 563.10 163.96 ZM 677.44 268.65 C675.74,274.81 675.08,280.99 675.45,287.02 C675.05,280.85 675.72,274.63 677.44,268.65 ZM 981.59 282.83 C981.74,283.22 981.89,283.61 982.03,284.00 C981.40,283.99 981.16,283.55 981.50,283.00 C981.54,282.94 981.57,282.88 981.59,282.83 ZM 572.43 191.35 C569.57,189.14 566.51,186.92 563.69,184.99 C563.93,185.15 564.17,185.31 564.41,185.47 C565.19,185.99 565.95,186.51 566.71,187.04 C568.65,188.42 570.56,189.85 572.43,191.35 ZM 888.94 586.94 L 889.00 586.98 L 880.77 593.28 ZM 998.22 347.60 C998.54,350.35 998.79,353.12 998.97,356.10 C999.01,356.84 999.05,357.62 999.08,358.41 C998.84,354.44 998.56,350.76 998.22,347.60 ZM 507.78 196.01 C507.81,196.00 507.85,196.00 507.88,196.00 C508.46,196.00 511.42,197.17 514.45,198.61 C514.96,198.85 515.44,199.07 515.87,199.28 C512.73,197.78 508.79,196.12 507.78,196.01 ZM 582.46 244.23 C582.34,244.00 582.22,243.76 582.09,243.52 C579.49,238.46 577.00,233.97 574.49,229.85 C577.21,234.27 579.83,239.03 582.46,244.23 ZM 660.03 645.40 C664.12,646.29 668.56,647.17 673.09,647.98 C668.73,647.23 664.37,646.37 660.03,645.40 ZM 777.48 367.84 C777.48,367.85 777.47,367.85 777.47,367.86 C777.46,367.86 777.45,367.87 777.43,367.87 C777.39,367.87 777.34,367.86 777.28,367.83 C777.51,367.56 777.92,366.84 778.44,365.83 C777.89,367.02 777.56,367.73 777.48,367.84 ZM 763.70 357.76 L 766.11 359.67 C764.87,358.73 764.00,358.07 763.76,357.91 C763.73,357.88 763.71,357.84 763.70,357.76 ZM 439.46 321.87 C440.15,318.70 440.89,315.54 441.69,312.39 C440.95,315.38 440.18,318.65 439.46,321.87 ZM 804.50 420.78 C803.24,418.77 801.75,416.60 800.11,414.38 C801.71,416.53 803.18,418.66 804.50,420.78 ZM 995.23 330.22 C995.69,332.41 996.10,334.46 996.47,336.41 C995.81,332.93 995.02,329.17 994.16,325.33 C994.53,326.97 994.89,328.60 995.23,330.21 ZM 750.50 542.76 C749.16,543.43 747.79,544.06 746.37,544.68 C747.79,544.06 749.17,543.42 750.50,542.76 ZM 977.12 433.67 C976.85,435.02 976.56,436.37 976.26,437.73 C976.56,436.37 976.85,435.01 977.12,433.67 Z" fill="rgb(200,166,92)"/>
<path d="M 693.00 650.94 C670.94,648.48 640.00,641.53 640.00,639.04 C640.00,638.64 638.16,637.76 635.90,637.09 C629.87,635.28 631.73,634.77 638.07,636.49 C654.73,641.01 663.72,643.10 674.43,644.95 C721.12,653.03 769.65,647.37 816.41,628.41 C820.67,626.68 822.67,626.31 823.58,627.07 C824.51,627.84 826.45,627.38 830.68,625.40 C841.35,620.40 864.03,606.12 876.58,596.49 L 889.00 586.98 L 895.13 591.17 L 901.27 595.36 L 896.88 599.19 C891.07,604.28 880.45,612.36 870.00,619.65 C857.58,628.31 831.68,642.14 825.50,643.41 C822.92,643.94 822.27,643.61 820.82,641.06 C819.06,637.95 813.47,635.00 809.32,635.00 C807.98,635.00 801.40,636.84 794.69,639.08 C781.61,643.46 771.66,645.96 755.00,649.06 C742.64,651.36 706.59,652.45 693.00,650.94 ZM 822.53 627.19 C822.22,626.89 821.41,627.19 820.73,627.88 C819.75,628.86 819.87,628.98 821.29,628.44 C822.28,628.06 822.83,627.50 822.53,627.19 ZM 529.79 593.25 C528.95,592.29 528.49,590.87 528.76,590.11 C529.07,589.25 528.82,588.99 528.10,589.44 C527.45,589.84 527.07,589.63 527.23,588.96 C527.38,588.30 526.76,587.64 525.85,587.49 C524.94,587.33 522.85,586.21 521.20,584.99 C516.20,581.29 498.71,561.17 496.01,556.00 L 494.71 553.50 L 496.85 555.40 C498.99,557.31 499.00,557.30 498.65,554.30 C498.45,552.64 497.99,550.80 497.62,550.19 C496.80,548.87 499.95,547.07 501.89,547.76 C502.65,548.04 503.01,547.83 502.68,547.30 C502.36,546.77 502.76,546.33 503.59,546.33 C504.41,546.33 507.88,549.52 511.29,553.41 C514.71,557.30 521.66,565.07 526.75,570.67 C534.38,579.08 535.68,580.97 534.18,581.44 C533.18,581.76 531.63,583.55 530.74,585.41 C529.18,588.70 529.19,588.82 531.30,589.37 C532.94,589.80 533.18,590.22 532.31,591.09 C531.68,591.72 531.39,592.86 531.69,593.62 C532.41,595.51 531.62,595.35 529.79,593.25 ZM 922.10 583.44 C918.58,582.09 914.08,579.98 912.10,578.75 C910.12,577.52 907.31,575.84 905.85,575.01 C894.78,568.71 881.80,556.55 873.03,544.24 C864.84,532.76 856.67,516.35 851.87,501.73 C849.74,495.25 848.00,489.28 848.00,488.47 C848.00,486.07 850.46,486.78 853.58,490.08 C855.19,491.77 857.51,494.11 858.75,495.26 C859.99,496.42 861.00,497.97 861.00,498.72 C861.00,501.10 868.35,507.75 871.78,508.48 C873.78,508.90 875.71,510.22 876.71,511.84 C877.61,513.30 880.23,516.53 882.52,519.00 C884.82,521.47 888.39,526.65 890.45,530.50 C898.14,544.82 910.78,559.91 921.81,567.94 C926.75,571.54 927.81,572.82 927.64,574.92 C927.48,576.79 928.19,577.97 930.21,579.24 C933.12,581.05 933.70,582.45 931.98,583.51 C931.42,583.86 931.23,584.56 931.54,585.07 C932.52,586.66 928.78,586.01 922.10,583.44 ZM 931.00 578.50 C930.07,577.38 930.06,577.00 930.94,577.00 C931.59,577.00 931.81,576.51 931.44,575.90 C930.96,575.13 931.39,575.14 932.88,575.94 C934.05,576.56 935.00,577.31 935.00,577.59 C935.00,577.88 934.47,577.79 933.83,577.39 C933.04,576.91 932.87,577.22 933.30,578.34 C934.09,580.41 932.67,580.51 931.00,578.50 ZM 707.00 554.38 C705.62,554.13 703.60,553.54 702.50,553.08 C701.40,552.62 699.48,551.85 698.24,551.37 C696.81,550.82 702.35,550.49 713.24,550.46 C729.93,550.43 730.80,550.32 739.55,547.30 C751.29,543.24 759.47,538.37 768.33,530.18 C772.28,526.53 774.40,524.78 773.06,526.29 C769.97,529.76 769.59,532.00 772.08,532.00 C773.30,532.00 774.49,530.76 775.43,528.52 C776.22,526.61 777.78,524.08 778.88,522.89 C781.59,519.99 787.74,507.38 790.19,499.72 C791.56,495.43 792.34,489.46 792.71,480.49 C793.31,465.93 791.93,456.71 787.54,445.90 C784.87,439.34 784.80,437.94 787.24,440.38 C788.05,441.19 790.06,442.67 791.71,443.68 C795.81,446.17 801.94,451.85 805.21,456.18 C806.71,458.15 809.97,461.06 812.46,462.63 L 817.00 465.50 L 817.00 475.68 C817.00,503.36 804.81,527.84 782.76,544.41 C778.10,547.91 775.78,547.34 776.67,542.91 C777.14,540.56 776.88,539.51 775.67,538.84 C774.78,538.33 773.92,537.97 773.77,538.03 C773.62,538.09 772.38,537.72 771.00,537.21 C769.00,536.46 767.51,536.84 763.50,539.12 C750.70,546.41 742.84,549.92 735.00,551.84 C726.53,553.92 711.75,555.26 707.00,554.38 ZM 495.20 551.11 C493.01,548.63 492.93,548.61 493.52,550.75 C494.43,554.09 493.48,553.50 490.28,548.75 C485.84,542.15 485.48,541.32 488.16,543.76 C489.53,545.00 490.95,545.71 491.32,545.34 C491.70,544.97 492.00,545.20 492.00,545.85 C492.00,546.50 493.46,548.33 495.25,549.93 C497.04,551.53 498.27,553.03 498.00,553.28 C497.72,553.52 496.46,552.54 495.20,551.11 ZM 534.94 516.41 C549.87,512.39 557.97,501.12 561.72,479.14 C563.21,470.38 563.71,469.04 565.62,468.56 C566.88,468.24 568.24,466.74 568.85,465.01 C569.58,462.90 570.55,462.00 572.09,462.00 C573.37,462.00 575.67,460.44 577.60,458.25 C580.45,455.03 580.95,454.78 581.12,456.50 C581.23,457.60 581.65,453.55 582.05,447.50 C582.77,436.51 586.18,400.60 587.93,385.50 C589.72,370.03 591.09,359.48 591.61,357.05 C592.50,352.91 593.92,356.80 593.40,361.95 C593.14,364.45 591.84,377.98 590.49,392.00 C585.05,448.66 583.64,461.51 582.84,461.83 C582.38,462.02 581.96,463.59 581.90,465.33 C581.80,468.37 581.77,468.40 581.00,466.00 C580.56,464.62 580.15,464.02 580.10,464.65 C580.04,465.29 579.31,472.03 578.47,479.64 C576.74,495.25 577.38,501.04 581.52,507.02 C584.52,511.35 588.30,513.65 596.32,516.02 L 602.50 517.85 L 566.00 517.86 C532.17,517.87 529.90,517.76 534.94,516.41 ZM 626.58 501.92 C623.76,493.70 623.18,471.11 625.54,461.11 C626.37,457.59 626.86,454.53 626.63,454.30 C626.41,454.08 625.67,456.19 625.00,459.00 C624.33,461.81 623.56,463.90 623.30,463.64 C622.30,462.63 627.34,447.03 631.56,438.12 L 636.00 428.74 L 640.08 429.28 C642.33,429.59 644.36,430.03 644.60,430.26 C644.83,430.50 643.95,433.12 642.64,436.10 C641.33,439.07 639.44,444.09 638.44,447.25 C636.60,453.12 635.45,454.36 634.75,451.25 C634.54,450.29 633.78,452.19 633.06,455.48 C632.06,460.07 632.02,462.58 632.88,466.31 C634.25,472.24 634.34,480.00 633.04,480.00 C632.52,480.00 631.91,476.96 631.68,473.25 C631.46,469.54 631.37,473.28 631.47,481.57 C631.65,495.81 631.54,496.82 629.37,499.99 C627.78,502.31 626.92,502.91 626.58,501.92 ZM 476.39 493.01 C475.51,490.81 474.39,489.26 473.91,489.56 C473.42,489.86 473.32,489.33 473.68,488.39 C474.16,487.14 473.98,486.89 473.04,487.48 C472.18,488.01 471.89,487.83 472.19,486.94 C472.43,486.20 471.95,484.80 471.11,483.82 C466.91,478.91 457.41,446.55 453.85,425.00 C451.30,409.60 450.11,368.76 451.95,360.00 C452.59,356.98 453.44,352.92 453.84,351.00 C455.36,343.65 456.00,351.20 454.87,363.33 C451.66,397.98 457.69,439.45 471.19,475.50 C473.46,481.55 475.32,487.06 475.32,487.75 C475.33,488.44 475.73,489.00 476.23,489.00 C476.72,489.00 476.84,489.45 476.50,490.00 C476.16,490.55 476.31,491.00 476.84,491.00 C477.37,491.00 478.27,492.35 478.85,494.00 C480.44,498.56 478.26,497.68 476.39,493.01 ZM 961.51 477.60 C961.81,476.56 963.60,470.94 965.49,465.10 C970.17,450.71 973.58,436.23 976.23,419.50 C978.08,407.80 978.45,401.36 978.47,380.32 C978.49,356.85 978.59,355.49 979.90,360.32 C982.97,371.58 982.21,404.95 978.39,427.00 C975.29,444.85 968.75,467.82 965.89,470.89 C964.89,471.96 963.37,474.34 962.52,476.17 C961.67,478.00 961.21,478.65 961.51,477.60 ZM 872.51 476.01 C870.91,473.43 868.49,461.37 864.98,438.50 C862.86,424.75 859.75,404.77 858.05,394.10 C856.35,383.43 855.21,373.92 855.51,372.98 C855.81,372.04 855.66,370.19 855.19,368.88 C854.72,367.57 854.62,365.38 854.99,364.00 C855.60,361.70 855.70,361.66 856.28,363.50 C856.63,364.60 860.56,388.90 865.02,417.50 C869.47,446.10 873.49,471.19 873.95,473.25 C874.73,476.73 873.91,478.29 872.51,476.01 ZM 633.00 462.50 C633.00,461.12 633.45,460.00 634.00,460.00 C634.55,460.00 635.00,461.12 635.00,462.50 C635.00,463.88 634.55,465.00 634.00,465.00 C633.45,465.00 633.00,463.88 633.00,462.50 ZM 681.30 463.21 C680.64,462.79 677.87,457.51 675.15,451.47 C652.89,402.15 649.11,393.56 649.46,393.20 C650.46,392.21 651.88,394.40 653.98,400.22 C658.08,411.52 661.10,414.00 666.12,410.18 C669.61,407.52 674.72,405.68 676.61,406.40 C678.88,407.28 681.03,404.12 680.28,401.00 C679.55,397.96 671.54,379.53 662.56,360.22 C658.90,352.37 656.23,345.40 656.62,344.72 C657.00,344.05 656.97,343.82 656.53,344.21 C655.73,344.93 652.00,338.53 652.00,336.43 C652.00,334.48 645.43,326.57 642.52,325.01 C641.00,324.20 638.00,320.94 635.84,317.77 C631.09,310.78 622.65,302.51 618.53,300.82 C615.13,299.42 614.03,298.66 609.89,294.83 C608.30,293.36 607.00,291.44 607.00,290.58 C607.00,289.71 606.52,289.00 605.94,289.00 C605.36,289.00 605.17,288.54 605.51,287.98 C605.86,287.42 604.99,285.58 603.57,283.90 C602.16,282.22 601.00,280.23 601.00,279.48 C601.00,277.39 599.29,276.80 597.14,278.15 C595.57,279.13 594.73,279.05 592.73,277.74 C590.90,276.54 589.98,276.42 589.13,277.27 C588.29,278.11 588.00,278.03 587.98,276.95 C587.97,275.72 587.82,275.72 587.00,277.00 C585.68,279.05 585.70,274.83 587.07,263.97 L 588.14 255.50 L 582.52 244.35 C574.54,228.53 566.57,216.89 556.22,205.95 C547.34,196.57 535.55,186.80 529.25,183.60 C527.46,182.69 526.00,181.51 526.00,180.97 C526.00,180.44 525.13,180.00 524.06,180.00 C522.99,180.00 519.05,178.92 515.31,177.60 C508.46,175.19 501.88,173.55 494.53,172.43 C491.11,171.91 490.82,171.68 492.43,170.78 C496.66,168.41 530.00,171.43 530.00,174.18 C530.00,174.69 530.45,174.84 531.00,174.50 C531.55,174.16 532.00,174.39 532.00,175.00 C532.00,175.61 532.45,175.84 533.00,175.50 C533.55,175.16 534.00,175.36 534.00,175.94 C534.00,176.52 535.46,177.01 537.25,177.01 C540.47,177.03 548.55,179.43 550.49,180.94 C551.05,181.37 552.28,181.71 553.23,181.70 C554.66,181.67 554.75,181.40 553.73,180.15 C549.61,175.07 570.15,188.66 579.38,197.11 C585.92,203.10 587.29,205.29 583.09,203.05 C581.94,202.43 581.00,202.13 581.00,202.37 C581.00,202.62 583.77,206.12 587.16,210.16 C590.55,214.20 595.79,221.26 598.80,225.86 C604.44,234.49 618.00,260.37 618.00,262.53 C618.00,263.96 621.73,272.21 632.89,295.50 C642.85,316.27 642.44,315.56 644.21,315.25 C645.15,315.08 646.91,317.73 649.19,322.75 C651.14,327.01 661.82,350.52 672.93,375.00 C684.05,399.48 695.38,424.36 698.13,430.30 C706.56,448.57 707.01,449.78 705.58,450.33 C704.74,450.65 702.36,446.79 698.70,439.16 C695.62,432.75 692.40,426.60 691.55,425.50 C690.03,423.53 689.97,423.55 687.48,426.50 C683.28,431.49 683.03,431.83 681.80,434.54 C681.15,435.97 679.29,437.83 677.69,438.66 C675.03,440.03 674.81,440.54 675.28,444.07 C675.57,446.22 677.01,450.34 678.49,453.23 C680.80,457.76 683.24,464.03 682.68,463.98 C682.58,463.98 681.96,463.63 681.30,463.21 ZM 737.00 445.25 C735.08,441.54 733.08,438.20 732.57,437.83 C732.06,437.46 730.32,439.71 728.70,442.83 C725.38,449.22 724.31,450.64 723.42,449.75 C722.34,448.68 738.15,413.98 739.38,414.72 C743.83,417.41 753.03,425.48 752.68,426.38 C750.56,431.88 741.39,451.99 741.00,452.00 C740.72,452.00 738.92,448.96 737.00,445.25 ZM 813.75 438.25 C813.08,436.74 812.30,435.27 812.01,435.00 C811.72,434.73 810.36,432.06 808.99,429.07 C801.56,412.88 786.37,396.70 760.82,377.73 C757.20,375.05 752.65,374.14 751.57,375.89 C751.27,376.38 747.30,377.98 742.76,379.45 C738.22,380.92 733.83,382.39 733.00,382.72 C732.17,383.05 730.99,383.24 730.37,383.14 C728.63,382.87 728.03,386.78 729.60,388.09 C730.37,388.72 731.00,388.97 731.00,388.63 C731.00,387.51 740.46,393.82 743.44,396.93 C745.05,398.62 746.01,400.00 745.56,400.00 C745.12,400.00 745.37,400.78 746.13,401.73 C747.67,403.67 742.60,399.86 730.00,389.59 C725.33,385.78 722.48,382.91 723.68,383.22 C725.15,383.60 725.70,383.38 725.37,382.53 C724.92,381.36 728.37,377.87 734.30,373.51 C735.78,372.42 737.00,370.99 737.00,370.34 C737.00,369.68 738.12,368.26 739.50,367.18 C742.67,364.69 742.68,361.59 739.55,358.45 C738.03,356.94 737.61,356.00 738.44,356.00 C739.18,356.00 740.05,356.67 740.36,357.50 C740.68,358.33 741.41,359.00 741.99,359.00 C742.57,359.00 748.32,363.13 754.77,368.18 C785.97,392.60 796.30,402.34 804.72,415.27 C809.87,423.19 814.83,433.44 815.22,437.00 C815.37,438.38 815.95,439.83 816.50,440.23 C817.12,440.69 817.01,440.98 816.23,440.98 C815.53,440.99 814.41,439.76 813.75,438.25 ZM 834.97 426.25 C834.95,425.84 834.29,420.77 833.50,415.00 C832.71,409.23 832.07,402.92 832.07,401.00 L 832.08 397.50 L 833.59 400.98 C835.11,404.50 836.90,427.00 835.65,427.00 C835.29,427.00 834.99,426.66 834.97,426.25 ZM 997.05 393.75 C997.12,366.08 995.20,347.67 989.44,320.92 C986.62,307.82 981.98,294.80 979.89,294.17 C979.13,293.94 977.29,292.62 975.81,291.25 C974.22,289.77 972.48,288.99 971.56,289.34 C969.86,289.99 969.38,294.00 971.00,294.00 C971.55,294.00 972.00,294.67 972.00,295.50 C972.00,298.22 969.96,297.06 969.35,294.00 C969.02,292.35 968.19,291.00 967.51,291.00 C966.83,291.00 965.46,288.86 964.47,286.25 C956.58,265.47 942.14,239.91 926.49,219.00 C917.64,207.19 917.80,207.47 919.82,207.21 C920.75,207.09 923.64,206.72 926.25,206.40 C928.86,206.07 931.00,205.29 931.00,204.68 C931.00,201.42 949.61,225.82 956.58,238.22 C963.10,249.82 974.95,274.44 977.40,281.47 C978.73,285.30 980.36,288.62 981.02,288.84 C982.14,289.21 981.94,287.72 980.26,283.25 C980.00,282.56 980.31,282.00 980.95,282.00 C981.59,282.00 981.84,282.45 981.50,283.00 C981.16,283.55 981.41,284.00 982.05,284.00 C982.69,284.00 982.95,284.67 982.64,285.50 C982.32,286.33 982.42,287.00 982.87,287.00 C984.92,287.00 994.54,323.43 997.60,342.85 C1000.44,360.81 1000.66,412.00 997.91,412.00 C997.40,412.00 997.02,404.03 997.05,393.75 ZM 433.19 381.00 C432.99,366.31 434.16,350.87 436.60,336.00 C438.20,326.29 443.19,305.21 444.91,300.90 C446.68,296.47 446.17,305.04 444.09,314.67 C441.08,328.61 438.95,341.27 437.48,353.86 C434.42,379.99 434.02,383.73 433.70,389.00 C433.52,392.02 433.29,388.42 433.19,381.00 ZM 709.99 370.33 C699.20,362.16 682.55,348.45 677.61,343.64 C667.66,333.97 660.29,321.60 657.55,309.95 C655.62,301.75 655.59,284.63 657.50,275.50 C660.83,259.53 673.20,241.28 685.93,233.54 C694.21,228.51 695.48,228.76 697.03,235.64 C697.75,238.83 697.48,239.35 692.76,243.78 C671.96,263.24 669.47,294.71 686.97,316.85 C689.14,319.58 694.64,324.95 699.20,328.77 L 707.50 335.72 L 709.40 344.11 C710.44,348.72 711.84,354.30 712.50,356.50 C715.01,364.81 716.02,368.58 716.43,371.23 C716.67,372.74 717.14,374.42 717.49,374.98 C718.55,376.70 717.75,376.20 709.99,370.33 ZM 772.46 364.70 C770.23,362.94 767.18,360.52 765.67,359.33 L 762.93 357.16 L 767.59 347.12 C770.15,341.60 772.75,337.18 773.35,337.29 C774.57,337.52 781.25,324.54 788.56,307.77 C791.14,301.86 793.65,297.28 794.15,297.59 C795.31,298.31 804.00,294.13 804.00,292.85 C804.00,292.32 804.45,292.16 805.00,292.50 C805.55,292.84 806.00,292.34 806.00,291.39 C806.00,290.44 806.25,289.92 806.56,290.22 C807.14,290.81 804.22,300.79 802.96,302.50 C801.90,303.92 792.16,326.20 791.80,328.00 C791.63,328.83 791.21,329.73 790.86,330.00 C790.29,330.45 786.21,339.71 783.85,345.90 C783.05,348.00 783.13,348.14 784.49,347.01 C785.35,346.30 786.26,345.93 786.52,346.19 C787.13,346.79 777.95,368.02 777.11,367.95 C776.78,367.92 774.68,366.46 772.46,364.70 ZM 827.61 348.18 C826.76,345.21 818.00,282.40 818.00,279.27 C818.00,278.81 819.01,278.35 820.25,278.26 C821.49,278.17 823.46,276.99 824.62,275.64 C825.79,274.29 828.07,272.50 829.70,271.66 C831.32,270.82 833.23,269.43 833.95,268.57 C834.66,267.70 835.58,267.00 836.00,267.00 C837.10,267.00 840.72,283.05 841.98,293.50 C842.58,298.45 844.28,309.48 845.76,318.00 C847.23,326.52 848.45,335.75 848.47,338.50 L 848.50 343.50 L 844.62 343.82 C842.49,343.99 839.03,345.22 836.94,346.54 C831.89,349.72 828.24,350.37 827.61,348.18 ZM 642.12 311.92 C641.30,309.56 641.34,308.95 642.28,309.26 C642.95,309.48 643.50,310.30 643.50,311.08 C643.50,311.86 643.89,312.78 644.36,313.12 C644.83,313.47 644.76,314.03 644.20,314.37 C643.65,314.72 642.71,313.61 642.12,311.92 ZM 639.15 305.42 C637.74,302.32 637.73,302.00 639.06,302.00 C639.64,302.00 639.84,302.45 639.50,303.00 C639.16,303.55 639.39,304.00 640.00,304.00 C640.61,304.00 640.86,304.41 640.55,304.91 C640.24,305.42 640.53,306.01 641.19,306.23 C642.00,306.50 642.05,306.85 641.35,307.29 C640.77,307.64 639.78,306.81 639.15,305.42 ZM 808.08 286.86 C808.03,285.35 808.66,283.96 809.52,283.63 C810.70,283.18 810.84,283.44 810.16,284.77 C809.67,285.72 809.02,287.17 808.71,288.00 C808.39,288.88 808.13,288.41 808.08,286.86 ZM 486.73 225.40 C485.76,224.43 487.75,220.20 491.19,215.92 C493.79,212.68 494.55,212.22 495.25,213.48 C495.72,214.32 495.85,215.43 495.53,215.95 C495.22,216.46 495.75,217.38 496.73,218.00 C498.00,218.80 498.15,219.27 497.24,219.64 C496.55,219.93 496.24,220.58 496.55,221.07 C496.85,221.57 496.50,221.74 495.75,221.46 C495.01,221.17 493.33,222.08 492.03,223.47 C489.70,225.95 487.93,226.60 486.73,225.40 ZM 760.92 223.62 C760.69,223.41 758.36,222.98 755.74,222.67 C753.12,222.36 750.64,221.91 750.24,221.66 C749.83,221.42 743.88,220.89 737.00,220.49 C722.48,219.65 724.51,219.66 715.00,220.34 C709.06,220.76 708.13,220.65 710.50,219.83 C715.08,218.25 739.39,218.29 748.00,219.89 C760.02,222.13 766.73,223.83 763.92,223.92 C762.50,223.96 761.15,223.83 760.92,223.62 ZM 509.88 210.00 C509.81,209.45 509.64,208.55 509.50,208.00 C509.36,207.45 509.18,206.21 509.09,205.25 C508.95,203.72 508.70,203.78 507.09,205.71 C506.08,206.92 504.97,207.63 504.62,207.29 C504.28,206.95 504.00,207.25 504.00,207.96 C504.00,208.98 503.70,208.99 502.51,208.01 C501.69,207.33 501.24,206.41 501.52,205.97 C501.79,205.53 501.54,205.01 500.96,204.82 C499.62,204.37 506.01,196.00 507.69,196.00 C509.09,196.00 520.00,201.00 520.00,201.64 C520.00,201.86 518.14,204.06 515.87,206.52 C511.78,210.96 510.12,211.93 509.88,210.00 ZM 556.25 160.97 C552.81,159.39 550.00,157.64 550.00,157.08 C550.00,154.74 574.48,138.73 591.50,129.93 C609.80,120.48 639.49,109.76 657.77,106.00 C661.23,105.30 663.83,104.50 663.56,104.23 C663.29,103.96 658.74,104.74 653.46,105.96 C648.17,107.18 643.63,107.96 643.36,107.69 C642.79,107.13 661.45,102.68 671.00,101.11 C702.55,95.90 742.47,96.61 773.11,102.92 C797.98,108.05 816.13,114.26 841.25,126.23 C848.88,129.87 852.00,131.87 852.00,133.11 C852.00,134.55 849.52,133.68 838.25,128.30 C804.21,112.07 762.77,101.59 730.04,100.95 C721.53,100.78 719.00,101.46 719.00,103.91 C719.00,104.84 718.49,106.11 717.87,106.73 C717.20,107.40 717.06,108.62 717.52,109.68 C718.67,112.35 718.91,114.00 718.16,114.03 C708.70,114.45 689.20,116.36 678.45,117.93 C640.98,123.41 601.25,138.27 572.74,157.47 C567.40,161.06 562.91,163.97 562.77,163.93 C562.62,163.89 559.69,162.56 556.25,160.97 Z" fill="rgb(234,206,126)"/>
</g>
</svg>